<?xml version="1.0" encoding="UTF-8" standalone="no"?>
<!-- Created with Inkscape (http://www.inkscape.org/) -->

<svg
   version="1.1"
   id="svg2"
   xml:space="preserve"
   width="269.33334"
   height="97.333336"
   viewBox="0 0 269.33334 97.333336"
   sodipodi:docname="messagebox2.pdf"
   xmlns:inkscape="http://www.inkscape.org/namespaces/inkscape"
   xmlns:sodipodi="http://sodipodi.sourceforge.net/DTD/sodipodi-0.dtd"
   xmlns="http://www.w3.org/2000/svg"
   xmlns:svg="http://www.w3.org/2000/svg"><defs
     id="defs6"><clipPath
       clipPathUnits="userSpaceOnUse"
       id="clipPath36"><path
         d="M 1890.28,443.32 H 378.008 V 340.066 H 1890.28 Z"
         clip-rule="evenodd"
         id="path34" /></clipPath></defs><sodipodi:namedview
     id="namedview4"
     pagecolor="#ffffff"
     bordercolor="#666666"
     borderopacity="1.0"
     inkscape:pageshadow="2"
     inkscape:pageopacity="0.0"
     inkscape:pagecheckerboard="0" /><g
     id="g8"
     inkscape:groupmode="layer"
     inkscape:label="messagebox2"
     transform="matrix(1.3333333,0,0,-1.3333333,0,97.333333)"><g
       id="g10"
       transform="scale(0.1)"><path
         d="M 9.16016,546.578 V 664.586 H 2012 V 8.17188 H 9.16016 V 546.578 H 2012"
         style="fill:#fafafa;fill-opacity:1;fill-rule:nonzero;stroke:none"
         id="path12" /><g
         id="g14"
         transform="scale(1.0001,-0.999898)"><path
           d="m 9.15922,-546.634 v -118.02 H 2011.79 V -8.17271 H 9.15922 V -546.634 H 2011.79"
           style="fill:none;stroke:#666666;stroke-width:7.37617;stroke-linecap:butt;stroke-linejoin:miter;stroke-miterlimit:4;stroke-dasharray:none;stroke-opacity:1"
           id="path16" /></g><path
         d="M 12.8477,660.895 H 2008.3 V 550.266 H 12.8477 v 110.629"
         style="fill:#dedede;fill-opacity:1;fill-rule:nonzero;stroke:none"
         id="path18" /><g
         id="g20"
         transform="scale(1.0001,-0.999898)"><path
           d="m 1923.28,-635.147 59.01,59.01 m 0,-59.01 -59.01,59.01 m -99.58,-55.322 h 51.63 v 51.634 h -51.63 z m -103.27,51.634 h 51.64"
           style="fill:none;stroke:#666666;stroke-width:7.37617;stroke-linecap:butt;stroke-linejoin:miter;stroke-miterlimit:4;stroke-dasharray:none;stroke-opacity:1"
           id="path22" /></g><g
         id="g24"
         transform="scale(10)"><text
           transform="matrix(1,0,0,-0.99980004,4.6043,58.7141)"
           style="font-variant:normal;font-weight:bold;font-size:5.52842px;font-family:Arial;-inkscape-font-specification:Arial-BoldMT;writing-mode:lr-tb;fill:#000000;fill-opacity:1;fill-rule:nonzero;stroke:none"
           id="text28"><tspan
             x="0 4.6051702 7.67977 10.754371 13.82897 16.90357 20.280514 23.355112 24.891045 26.732006 28.267939 30.108902 31.644833"
             y="0"
             sodipodi:role="line"
             id="tspan26">Message title</tspan></text></g><g
         id="g30"><g
           id="g32"
           clip-path="url(#clipPath36)"><g
             id="g38"
             transform="scale(10)"><text
               transform="matrix(1,0,0,-0.99980004,37.8008,39.1695)"
               style="font-variant:normal;font-weight:normal;font-size:5.52842px;font-family:ArialMT;-inkscape-font-specification:ArialMT;writing-mode:lr-tb;fill:#000000;fill-opacity:1;fill-rule:nonzero;stroke:none"
               id="text42"><tspan
                 x="0 3.3769433 6.4515419 9.5261402 11.062073 14.136671 17.211269 18.43939 21.203598 23.967806 25.50374 28.578339 30.419302 33.4939 37.486465 40.561066 42.097 43.632935 46.707531 49.471741 51.007675 52.235794 55.310394 59.915565 62.990162 65.754372 67.290306 70.364914 73.12912 76.20372 78.044685 79.58062 81.116554 84.191162 87.265762 88.801697 90.029823 93.104431 95.868637 98.632843 100.16878 103.24339 106.31799 109.39259"
                 y="0"
                 sodipodi:role="line"
                 id="tspan40">The quick brown fox jumps over the lazy dog.</tspan></text></g></g></g><g
         id="g44"
         transform="scale(1.0001,-0.999898)"><path
           d="m 193.562,-444.522 c -51.522,0 -93.353,41.836 -93.353,93.357 0,51.525 41.831,93.358 93.353,93.358 51.522,0 93.358,-41.833 93.358,-93.358 0,-51.521 -41.836,-93.357 -93.358,-93.357 z"
           style="fill:none;stroke:#ffffff;stroke-width:29.9657;stroke-linecap:round;stroke-linejoin:round;stroke-miterlimit:4;stroke-dasharray:none;stroke-opacity:1"
           id="path46" /></g><g
         id="g48"
         transform="scale(1.0001,-0.999898)"><path
           d="m 193.562,-444.522 c -51.522,0 -93.353,41.836 -93.353,93.357 0,51.525 41.831,93.358 93.353,93.358 51.522,0 93.358,-41.833 93.358,-93.358 0,-51.521 -41.836,-93.357 -93.358,-93.357 z"
           style="fill:none;stroke:#666666;stroke-width:11.5253;stroke-linecap:butt;stroke-linejoin:miter;stroke-miterlimit:4;stroke-dasharray:none;stroke-opacity:1"
           id="path50" /></g><path
         d="m 180.918,368.156 c -2.383,0 -4.66,-0.164 -6.828,-0.488 v 2.437 c 7.59,2.168 15.992,5.153 25.207,8.946 l 0.652,-0.488 v -57.727 c 0,-5.852 0.649,-9.594 1.949,-11.219 1.411,-1.519 4.774,-2.492 10.086,-2.926 v -2.441 h -38.546 v 2.441 c 5.636,0.325 9.164,1.301 10.57,2.926 1.519,1.625 2.277,5.367 2.277,11.219 v 37.727 c 0,3.578 -0.433,6.07 -1.301,7.48 -0.757,1.41 -2.113,2.113 -4.066,2.113 z m 10.734,47.157 c 2.387,0 4.391,-0.813 6.02,-2.438 1.625,-1.629 2.437,-3.578 2.437,-5.855 0,-2.387 -0.812,-4.391 -2.437,-6.016 -1.629,-1.52 -3.633,-2.277 -6.02,-2.277 -2.277,0 -4.226,0.812 -5.855,2.437 -1.516,1.629 -2.274,3.578 -2.274,5.856 0,2.277 0.813,4.226 2.438,5.855 1.625,1.625 3.523,2.438 5.691,2.438"
         style="fill:#4d4d4d;fill-opacity:1;fill-rule:nonzero;stroke:none"
         id="path52" /><path
         d="m 1458.73,247.871 h 431.55 V 100.363 h -431.55 v 147.508"
         style="fill:#c8c8c8;fill-opacity:1;fill-rule:nonzero;stroke:none"
         id="path54" /><g
         id="g56"
         transform="scale(1.0001,-0.999898)"><path
           d="m 1458.58,-247.896 h 431.5 v 147.523 h -431.5 z"
           style="fill:none;stroke:#666666;stroke-width:7.37617;stroke-linecap:butt;stroke-linejoin:round;stroke-miterlimit:4;stroke-dasharray:none;stroke-opacity:1"
           id="path58" /></g><g
         id="g60"
         transform="scale(10)"><text
           transform="matrix(1,0,0,-0.99980004,163.208,15.1992)"
           style="font-variant:normal;font-weight:bold;font-size:5.52842px;font-family:Arial;-inkscape-font-specification:Arial-BoldMT;writing-mode:lr-tb;fill:#000000;fill-opacity:1;fill-rule:nonzero;stroke:none"
           id="text64"><tspan
             x="0 4.300375"
             y="0"
             sodipodi:role="line"
             id="tspan62">OK</tspan></text></g><path
         d="m 164.074,428.57 c 0,-15.273 -5.402,-28.312 -16.203,-39.113 -10.805,-10.801 -23.844,-16.203 -39.121,-16.203 -15.2812,0 -28.3203,5.402 -39.125,16.203 -10.8008,10.801 -16.2031,23.84 -16.2031,39.113 0,15.274 5.4023,28.313 16.2031,39.114 10.8047,10.8 23.8438,16.203 39.125,16.203 15.277,0 28.316,-5.403 39.121,-16.203 10.801,-10.801 16.203,-23.84 16.203,-39.114"
         style="fill:#ffffcc;fill-opacity:1;fill-rule:nonzero;stroke:none"
         id="path66" /><g
         id="g68"
         transform="scale(1.0001,-0.999898)"><path
           d="m 164.058,-428.614 c 0,15.275 -5.402,28.315 -16.202,39.117 -10.804,10.802 -23.841,16.205 -39.117,16.205 -15.2798,0 -28.3175,-5.403 -39.1211,-16.205 -10.7997,-10.802 -16.2015,-23.842 -16.2015,-39.117 0,-15.275 5.4018,-28.315 16.2015,-39.117 10.8036,-10.802 23.8413,-16.205 39.1211,-16.205 15.276,0 28.313,5.403 39.117,16.205 10.8,10.802 16.202,23.842 16.202,39.117 z"
           style="fill:none;stroke:#ffff66;stroke-width:7.37617;stroke-linecap:butt;stroke-linejoin:miter;stroke-miterlimit:4;stroke-dasharray:none;stroke-opacity:1"
           id="path70" /></g><g
         id="g72"
         transform="scale(10)"><text
           transform="matrix(1,0,0,-0.99980004,9.54336,41.382)"
           style="font-variant:normal;font-weight:bold;font-size:4.79498px;font-family:Arial;-inkscape-font-specification:Arial-BoldMT;writing-mode:lr-tb;fill:#000000;fill-opacity:1;fill-rule:nonzero;stroke:none"
           id="text76"><tspan
             x="0"
             y="0"
             id="tspan74">1</tspan></text></g><path
         d="m 510.789,664.586 c 0,-15.277 -5.398,-28.316 -16.203,-39.117 -10.805,-10.801 -23.844,-16.199 -39.121,-16.199 -15.277,0 -28.32,5.398 -39.125,16.199 -10.801,10.801 -16.203,23.84 -16.203,39.117 0,15.273 5.402,28.312 16.203,39.113 10.805,10.801 23.848,16.199 39.125,16.199 15.277,0 28.316,-5.398 39.121,-16.199 10.805,-10.801 16.203,-23.84 16.203,-39.113"
         style="fill:#ffffcc;fill-opacity:1;fill-rule:nonzero;stroke:none"
         id="path78" /><g
         id="g80"
         transform="scale(1.0001,-0.999898)"><path
           d="m 510.737,-664.654 c 0,15.279 -5.398,28.32 -16.201,39.122 -10.804,10.801 -23.842,16.2 -39.118,16.2 -15.275,0 -28.317,-5.399 -39.121,-16.2 -10.799,-10.802 -16.201,-23.843 -16.201,-39.122 0,-15.275 5.402,-28.315 16.201,-39.117 10.804,-10.802 23.846,-16.201 39.121,-16.201 15.276,0 28.314,5.399 39.118,16.201 10.803,10.802 16.201,23.842 16.201,39.117 z"
           style="fill:none;stroke:#ffff66;stroke-width:7.37617;stroke-linecap:butt;stroke-linejoin:miter;stroke-miterlimit:4;stroke-dasharray:none;stroke-opacity:1"
           id="path82" /></g><g
         id="g84"
         transform="scale(10)"><text
           transform="matrix(1,0,0,-0.99980004,44.2152,64.9832)"
           style="font-variant:normal;font-weight:bold;font-size:4.79498px;font-family:Arial;-inkscape-font-specification:Arial-BoldMT;writing-mode:lr-tb;fill:#000000;fill-opacity:1;fill-rule:nonzero;stroke:none"
           id="text88"><tspan
             x="0"
             y="0"
             id="tspan86">2</tspan></text></g><path
         d="m 1628.39,413.82 c 0,-15.277 -5.4,-28.312 -16.2,-39.113 -10.8,-10.801 -23.84,-16.203 -39.12,-16.203 -15.28,0 -28.32,5.402 -39.12,16.203 -10.81,10.801 -16.21,23.836 -16.21,39.113 0,15.274 5.4,28.313 16.21,39.114 10.8,10.8 23.84,16.203 39.12,16.203 15.28,0 28.32,-5.403 39.12,-16.203 10.8,-10.801 16.2,-23.84 16.2,-39.114"
         style="fill:#ffffcc;fill-opacity:1;fill-rule:nonzero;stroke:none"
         id="path90" /><g
         id="g92"
         transform="scale(1.0001,-0.999898)"><path
           d="m 1628.23,-413.862 c 0,15.278 -5.4,28.315 -16.2,39.117 -10.81,10.802 -23.84,16.205 -39.12,16.205 -15.28,0 -28.32,-5.403 -39.12,-16.205 -10.8,-10.802 -16.2,-23.839 -16.2,-39.117 0,-15.275 5.4,-28.316 16.2,-39.118 10.8,-10.802 23.84,-16.204 39.12,-16.204 15.28,0 28.31,5.402 39.12,16.204 10.8,10.802 16.2,23.843 16.2,39.118 z"
           style="fill:none;stroke:#ffff66;stroke-width:7.37617;stroke-linecap:butt;stroke-linejoin:miter;stroke-miterlimit:4;stroke-dasharray:none;stroke-opacity:1"
           id="path94" /></g><g
         id="g96"
         transform="scale(10)"><text
           transform="matrix(1,0,0,-0.99980004,155.975,39.907)"
           style="font-variant:normal;font-weight:bold;font-size:4.79498px;font-family:Arial;-inkscape-font-specification:Arial-BoldMT;writing-mode:lr-tb;fill:#000000;fill-opacity:1;fill-rule:nonzero;stroke:none"
           id="text100"><tspan
             x="0"
             y="0"
             id="tspan98">3</tspan></text></g></g></g></svg>
