<?xml version="1.0" encoding="UTF-8" standalone="no"?>
<svg
   xmlns:dc="http://purl.org/dc/elements/1.1/"
   xmlns:cc="http://creativecommons.org/ns#"
   xmlns:rdf="http://www.w3.org/1999/02/22-rdf-syntax-ns#"
   xmlns:svg="http://www.w3.org/2000/svg"
   xmlns="http://www.w3.org/2000/svg"
   xmlns:sodipodi="http://sodipodi.sourceforge.net/DTD/sodipodi-0.dtd"
   xmlns:inkscape="http://www.inkscape.org/namespaces/inkscape"
   xml:space="preserve"
   width="904.48108"
   height="218.94998"
   version="1.1"
   style="clip-rule:evenodd;fill-rule:evenodd;image-rendering:optimizeQuality;shape-rendering:geometricPrecision;text-rendering:geometricPrecision"
   viewBox="0 0 904.48108 218.94997"
   id="svg1373"
   sodipodi:docname="arara-logo-with-text-right.svg"
   inkscape:version="1.0.1 (3bc2e813f5, 2020-09-07)"
   inkscape:export-filename="/home/paulo/arara-logo-with-text-right.png"
   inkscape:export-xdpi="54.368584"
   inkscape:export-ydpi="54.368584"><metadata
     id="metadata1377"><rdf:RDF><cc:Work
         rdf:about=""><dc:format>image/svg+xml</dc:format><dc:type
           rdf:resource="http://purl.org/dc/dcmitype/StillImage" /><dc:title /></cc:Work></rdf:RDF></metadata><sodipodi:namedview
     pagecolor="#ffffff"
     bordercolor="#666666"
     borderopacity="1"
     objecttolerance="10"
     gridtolerance="10"
     guidetolerance="10"
     inkscape:pageopacity="0"
     inkscape:pageshadow="2"
     inkscape:window-width="1920"
     inkscape:window-height="1017"
     id="namedview1375"
     showgrid="false"
     showguides="true"
     inkscape:guide-bbox="true"
     inkscape:zoom="1.02875"
     inkscape:cx="46.836163"
     inkscape:cy="108.27827"
     inkscape:window-x="0"
     inkscape:window-y="0"
     inkscape:window-maximized="1"
     inkscape:current-layer="svg1373"
     fit-margin-top="0"
     fit-margin-left="0"
     fit-margin-right="0"
     fit-margin-bottom="0"
     inkscape:document-rotation="0" /><defs
     id="defs1336"><style
       type="text/css"
       id="style1319"><![CDATA[
    @font-face { font-family:"Comfortaa";font-variant:normal;font-weight:bold;src:url("#FontID0") format(svg)}
    .fil2 {fill:black}
    .fil0 {fill:#00B847}
    .fil1 {fill:#00B847}
    .fil3 {fill:url(#id0)}
    .fil5 {fill:url(#id1)}
    .fil4 {fill:url(#id2)}
    .fnt1 {font-weight:bold;font-size:46.5237px;font-family:'Comfortaa'}
    .fnt0 {font-weight:bold;font-size:244.851px;font-family:'Comfortaa'}
   ]]></style><linearGradient
       id="id0"
       gradientUnits="userSpaceOnUse"
       x1="146.854"
       y1="450.65701"
       x2="163.976"
       y2="484.64401"><stop
         offset="0"
         style="stop-opacity:1; stop-color:#1292ED"
         id="stop1321" /><stop
         offset="1"
         style="stop-opacity:1; stop-color:#11C8ED"
         id="stop1323" /></linearGradient><linearGradient
       id="id1"
       gradientUnits="userSpaceOnUse"
       x1="177.37199"
       y1="341.13599"
       x2="186.84"
       y2="376.26901"><stop
         offset="0"
         style="stop-opacity:1; stop-color:#00B847"
         id="stop1326" /><stop
         offset="1"
         style="stop-opacity:1; stop-color:#1292ED"
         id="stop1328" /></linearGradient><linearGradient
       id="id2"
       gradientUnits="userSpaceOnUse"
       x1="196.207"
       y1="414.70099"
       x2="227.93401"
       y2="419.133"><stop
         offset="0"
         style="stop-opacity:1; stop-color:#F9EC22"
         id="stop1331" /><stop
         offset="1"
         style="stop-opacity:1; stop-color:#FFB812"
         id="stop1333" /></linearGradient></defs><g
     id="Arara_Logo"
     transform="translate(-51.495271,-289.32832)"><path
       id="Bico"
       class="fil2"
       d="m 102,378 c -7,-2 -13,-4 -17,-7 -10,-5 -17,-11 -20,-18 -3,-5 -4,-10 -3,-16 -6,9 -10,18 -10,28 -2,13 2,26 11,38 6,6 13,11 20,14 6,3 12,5 19,5 -7,-6 -11,-13 -10,-21 0,-7 3,-15 10,-23 z"
       inkscape:connector-curvature="0"
       style="fill:#000000" /><path
       id="Pena_3"
       class="fil3"
       d="m 133,402 c -32,53 -25,82 -4,96 15,10 38,12 58,9 20,-3 38,-11 43,-21 5,-8 2,-16 -12,-26 -4,0 -8,0 -12,-1 -11,-2 -22,-5 -32,-10 -11,-5 -20,-12 -27,-19 -9,-8 -14,-18 -14,-28 z"
       style="fill:url(#id0)"
       inkscape:connector-curvature="0" /><path
       id="Pena_2"
       class="fil4"
       d="m 155,400 c -7,0 -13,-1 -17,-3 -2,10 3,21 13,30 6,7 15,13 25,18 9,4 20,8 31,10 20,3 40,-1 50,-16 10,-14 11,-39 2,-65 -5,-16 -16,-33 -31,-47 3,5 4,11 4,17 1,13 -4,25 -13,34 -9,10 -23,16 -38,19 -9,2 -19,3 -26,3 z"
       style="fill:url(#id2)"
       inkscape:connector-curvature="0" /><path
       id="Pena_1"
       class="fil5"
       d="m 228,344 c -2,-28 -31,-43 -54,-47 -20,-4 -43,-4 -63,1 -10,3 -20,7 -28,14 2,-1 5,-2 9,-3 9,-3 20,-5 30,-5 12,1 22,7 28,16 19,25 8,46 -9,70 -1,1 -1,1 -1,1 1,1 3,2 5,3 3,1 7,1 12,1 18,1 45,-5 59,-20 8,-9 12,-20 12,-31 z"
       style="fill:url(#id1)"
       inkscape:connector-curvature="0" /><path
       id="Olho"
       class="fil2"
       d="m 119,319 c 1,0 1,0 1,0 -2,1 -4,3 -4,6 0,4 3,6 6,6 4,0 6,-2 7,-5 0,1 0,2 0,3 0,5 -4,10 -10,10 -5,0 -10,-5 -10,-10 0,-6 5,-10 10,-10 z"
       inkscape:connector-curvature="0"
       style="fill:#000000" /></g><g
     transform="matrix(28.045609,0,0,28.045609,-2612.3019,-4039.0384)"
     id="layer1"
     inkscape:label="Camada 1"
     style="fill:#00b847;fill-opacity:1"><g
       id="g3726"
       inkscape:label="arara"
       transform="matrix(0.35277777,0,0,-0.35277777,99.611934,150.8523)"
       style="fill:#00b847;fill-opacity:1"><g
         aria-label="arara"
         transform="matrix(1,0,0,-1,5.669,5.669)"
         style="font-variant:normal;font-weight:bold;font-size:24.7871px;font-family:Comfortaa;-inkscape-font-specification:Comfortaa-Bold;writing-mode:lr-tb;fill:#00b847;fill-opacity:1;fill-rule:nonzero;stroke:none"
         id="text3730"><path
           d="m 8.3780397,-13.657692 q 1.9086063,0 3.4454073,0.917123 1.561587,0.892335 2.453923,2.47871 0.917122,1.561587 0.917122,3.4949807 v 5.5275233 q 0,0.5453162 -0.371806,0.9171227 -0.34702,0.3470194 -0.892336,0.3470194 -0.545316,0 -0.917123,-0.3470194 -0.347019,-0.3718065 -0.347019,-0.9171227 v -0.9171227 q -0.867548,1.0658453 -2.106903,1.6607357 -1.2393555,0.5948904 -2.6770073,0.5948904 -1.7846711,0 -3.24711,-0.89233559 Q 3.1975359,-1.6855228 2.3547745,-3.2471101 1.5368002,-4.8334845 1.5368002,-6.7668783 q 0,-1.9333937 0.8923356,-3.4949807 0.8923356,-1.586375 2.4539229,-2.47871 1.5863744,-0.917123 3.494981,-0.917123 z m 0,11.5260014 q 1.239355,0 2.2308393,-0.5948904 1.016271,-0.6196775 1.586374,-1.6607357 0.570103,-1.0658453 0.570103,-2.3795616 0,-1.3137162 -0.570103,-2.3795615 -0.570103,-1.0658452 -1.586374,-1.6607362 -0.9914843,-0.619677 -2.2308393,-0.619677 -1.2393549,0 -2.255626,0.619677 -0.991484,0.594891 -1.5863744,1.6607362 -0.5701033,1.0658453 -0.5701033,2.3795615 0,1.3137163 0.5701033,2.3795616 0.5948904,1.0410582 1.5863744,1.6607357 1.0162711,0.5948904 2.255626,0.5948904 z"
           id="path959"
           inkscape:connector-curvature="0" /><path
           d="m 24.365719,-13.707266 q 1.313717,0 2.05733,0.396593 0.743613,0.396594 0.743613,0.991484 0,0.17351 -0.02479,0.247871 -0.223084,0.793188 -0.991484,0.793188 -0.123936,0 -0.371807,-0.04957 -0.991484,-0.173509 -1.611161,-0.173509 -1.784672,0 -2.875304,0.817974 -1.090632,0.8179743 -1.090632,2.2060519 V -1.23935 q 0,0.5948904 -0.322233,0.9171227 Q 19.581809,0 18.962132,0 18.367241,0 18.045009,-0.2974452 17.722777,-0.6196775 17.722777,-1.239355 v -11.079834 q 0,-0.59489 0.322232,-0.917122 0.322232,-0.322233 0.917123,-0.322233 1.239355,0 1.239355,1.239355 v 0.470955 q 0.743613,-0.867548 1.834245,-1.36329 1.090632,-0.495742 2.329987,-0.495742 z"
           id="path961"
           inkscape:connector-curvature="0" /><path
           d="m 34.478856,-13.657692 q 1.908607,0 3.445407,0.917123 1.561588,0.892335 2.453923,2.47871 0.917123,1.561587 0.917123,3.4949807 v 5.5275233 q 0,0.5453162 -0.371807,0.9171227 -0.347019,0.3470194 -0.892335,0.3470194 -0.545316,0 -0.917123,-0.3470194 -0.347019,-0.3718065 -0.347019,-0.9171227 v -0.9171227 q -0.867549,1.0658453 -2.106904,1.6607357 -1.239355,0.5948904 -2.677007,0.5948904 -1.784671,0 -3.24711,-0.89233559 -1.437651,-0.89233561 -2.280413,-2.45392291 -0.817974,-1.5863744 -0.817974,-3.5197682 0,-1.9333937 0.892336,-3.4949807 0.892335,-1.586375 2.453922,-2.47871 1.586375,-0.917123 3.494981,-0.917123 z m 0,11.5260014 q 1.239355,0 2.230839,-0.5948904 1.016272,-0.6196775 1.586375,-1.6607357 0.570103,-1.0658453 0.570103,-2.3795616 0,-1.3137162 -0.570103,-2.3795615 -0.570103,-1.0658452 -1.586375,-1.6607362 -0.991484,-0.619677 -2.230839,-0.619677 -1.239355,0 -2.255626,0.619677 -0.991484,0.594891 -1.586374,1.6607362 -0.570103,1.0658453 -0.570103,2.3795615 0,1.3137163 0.570103,2.3795616 0.59489,1.0410582 1.586374,1.6607357 1.016271,0.5948904 2.255626,0.5948904 z"
           id="path963"
           inkscape:connector-curvature="0" /><path
           d="m 50.466536,-13.707266 q 1.313716,0 2.057329,0.396593 0.743613,0.396594 0.743613,0.991484 0,0.17351 -0.02479,0.247871 -0.223084,0.793188 -0.991484,0.793188 -0.123935,0 -0.371806,-0.04957 -0.991484,-0.173509 -1.611162,-0.173509 -1.784671,0 -2.875303,0.817974 Q 46.3023,-9.8652607 46.3023,-8.4771831 V -1.23935 q 0,0.5948904 -0.322232,0.9171227 Q 45.682626,0 45.062948,0 44.468058,0 44.145826,-0.2974452 43.823593,-0.6196775 43.823593,-1.239355 v -11.079834 q 0,-0.59489 0.322233,-0.917122 0.322232,-0.322233 0.917122,-0.322233 1.239355,0 1.239355,1.239355 v 0.470955 q 0.743613,-0.867548 1.834246,-1.36329 1.090632,-0.495742 2.329987,-0.495742 z"
           id="path965"
           inkscape:connector-curvature="0" /><path
           d="m 60.579673,-13.657692 q 1.908607,0 3.445407,0.917123 1.561587,0.892335 2.453923,2.47871 0.917123,1.561587 0.917123,3.4949807 v 5.5275233 q 0,0.5453162 -0.371807,0.9171227 -0.347019,0.3470194 -0.892335,0.3470194 -0.545317,0 -0.917123,-0.3470194 -0.34702,-0.3718065 -0.34702,-0.9171227 v -0.9171227 q -0.867548,1.0658453 -2.106903,1.6607357 -1.239355,0.5948904 -2.677007,0.5948904 -1.784671,0 -3.24711,-0.89233559 -1.437652,-0.89233561 -2.280413,-2.45392291 -0.817974,-1.5863744 -0.817974,-3.5197682 0,-1.9333937 0.892335,-3.4949807 0.892336,-1.586375 2.453923,-2.47871 1.586375,-0.917123 3.494981,-0.917123 z m 0,11.5260014 q 1.239355,0 2.230839,-0.5948904 1.016271,-0.6196775 1.586375,-1.6607357 0.570103,-1.0658453 0.570103,-2.3795616 0,-1.3137162 -0.570103,-2.3795615 -0.570104,-1.0658452 -1.586375,-1.6607362 -0.991484,-0.619677 -2.230839,-0.619677 -1.239355,0 -2.255626,0.619677 -0.991484,0.594891 -1.586374,1.6607362 -0.570104,1.0658453 -0.570104,2.3795615 0,1.3137163 0.570104,2.3795616 0.59489,1.0410582 1.586374,1.6607357 1.016271,0.5948904 2.255626,0.5948904 z"
           id="path967"
           inkscape:connector-curvature="0" /></g></g></g><g
     transform="matrix(1.8606824,0,0,-1.8606824,225.7628,243.909)"
     inkscape:label="teste585"
     id="g842"
     style="fill:#00b847;fill-opacity:1"><g
       aria-label="ThecoolTE Xautomationtool"
       transform="matrix(1,0,0,-1,14.173,20.952)"
       style="font-variant:normal;font-weight:bold;font-size:24.7871px;font-family:Comfortaa;-inkscape-font-specification:Comfortaa-Bold;writing-mode:lr-tb;fill:#00b847;fill-opacity:1;fill-rule:nonzero;stroke:none"
       id="text850"><path
         d="m 14.822686,-19.358725 q 0.520529,0 0.842761,0.347019 0.347019,0.322233 0.347019,0.842762 0,0.520529 -0.347019,0.867548 -0.322232,0.322233 -0.842761,0.322233 H 9.4934592 v 15.6902338 q 0,0.5453162 -0.3718065,0.9171227 Q 8.7498462,0 8.20453,0 7.6592139,0 7.2874074,-0.3718065 6.9156009,-0.743613 6.9156009,-1.2889292 V -16.979163 H 1.5615873 q -0.5205291,0 -0.8675485,-0.322233 -0.3222323,-0.347019 -0.3222323,-0.867548 0,-0.520529 0.3222323,-0.842762 0.3470194,-0.347019 0.8675485,-0.347019 z"
         id="path970"
         inkscape:connector-curvature="0" /><path
         d="m 25.431565,-13.682479 q 1.71031,0 3.073601,0.743613 1.36329,0.743613 2.13169,2.181265 0.768401,1.4128644 0.768401,3.4206194 v 6.0976266 q 0,0.5453162 -0.371807,0.9171227 -0.347019,0.3470194 -0.892336,0.3470194 -0.545316,0 -0.917122,-0.3470194 -0.34702,-0.3718065 -0.34702,-0.9171227 v -6.0976266 q 0,-2.007755 -1.090632,-3.0240264 -1.065845,-1.041058 -2.850517,-1.041058 -1.041058,0 -1.908606,0.421381 -0.842762,0.42138 -1.338504,1.1402064 -0.470955,0.7188259 -0.470955,1.6111615 v 6.9899621 q 0,0.5453162 -0.347019,0.9171227 -0.347019,0.3470194 -0.917123,0.3470194 -0.545316,0 -0.917122,-0.3470194 -0.34702,-0.3718065 -0.34702,-0.9171227 v -16.855228 q 0,-0.570103 0.34702,-0.917123 0.371806,-0.347019 0.917122,-0.347019 0.570104,0 0.917123,0.347019 0.347019,0.34702 0.347019,0.917123 v 6.07284 q 0.793188,-0.793188 1.88382,-1.214568 1.090632,-0.446168 2.329987,-0.446168 z"
         id="path972"
         inkscape:connector-curvature="0" /><path
         d="m 45.360392,-6.9899622 q 0,0.4709549 -0.322232,0.7931872 -0.322232,0.2974452 -0.817974,0.2974452 h -9.419098 q 0.272658,1.735097 1.561587,2.8009423 1.313716,1.0658453 3.197536,1.0658453 0.743613,0 1.5368,-0.2726581 0.817975,-0.2726581 1.338504,-0.6692517 0.347019,-0.2726581 0.817974,-0.2726581 0.470955,0 0.743613,0.247871 0.446168,0.3718065 0.446168,0.8427614 0,0.4461678 -0.396594,0.743613 -0.842761,0.6692517 -2.106903,1.0906324 -1.239355,0.4213807 -2.379562,0.4213807 -2.032542,0 -3.643704,-0.86754849 -1.611161,-0.89233561 -2.528284,-2.45392291 -0.892335,-1.5615873 -0.892335,-3.5445553 0,-1.9829679 0.842761,-3.5445557 0.867548,-1.586374 2.379562,-2.453922 1.5368,-0.892336 3.470194,-0.892336 1.908606,0 3.296684,0.842761 1.388077,0.842762 2.13169,2.354775 0.743613,1.512013 0.743613,3.4701938 z m -6.171987,-4.5360388 q -1.809459,0 -2.949665,0.991484 -1.11542,0.9914836 -1.412865,2.6522193 h 8.254104 q -0.223084,-1.6607357 -1.239355,-2.6522193 -1.016271,-0.991484 -2.652219,-0.991484 z"
         id="path974"
         inkscape:connector-curvature="0" /><path
         d="m 62.066898,0.0991484 q -1.958181,0 -3.519768,-0.89233559 -1.561588,-0.89233561 -2.453923,-2.45392291 -0.867549,-1.5863744 -0.867549,-3.5197682 0,-1.9829679 0.842762,-3.5445557 0.867548,-1.586374 2.404348,-2.453922 1.5368,-0.892336 3.470194,-0.892336 2.924878,0 4.858272,2.230839 0.247871,0.272658 0.247871,0.644465 0,0.545316 -0.545316,0.9171223 -0.247871,0.1735097 -0.570104,0.1735097 -0.570103,0 -0.966697,-0.446168 -0.619677,-0.669252 -1.36329,-0.966697 -0.718826,-0.322232 -1.660736,-0.322232 -1.908606,0 -3.098387,1.288929 -1.189781,1.2641423 -1.189781,3.3710457 0,1.3385034 0.545316,2.4043487 0.570103,1.0410582 1.561587,1.6359486 1.016272,0.5948904 2.305201,0.5948904 1.685523,0 2.726581,-0.8675485 0.470955,-0.3470194 0.917122,-0.3470194 0.34702,0 0.644465,0.2230839 0.470955,0.3965936 0.470955,0.8923356 0,0.3718065 -0.297445,0.6692517 -1.784671,1.6607357 -4.461678,1.6607357 z"
         id="path976"
         inkscape:connector-curvature="0" /><path
         d="m 75.600658,0.0991484 q -1.982968,0 -3.544555,-0.86754849 -1.561588,-0.89233561 -2.429136,-2.45392291 -0.867549,-1.5615873 -0.867549,-3.5445553 0,-2.007755 0.867549,-3.5693427 0.867548,-1.561587 2.429136,-2.429135 1.561587,-0.892336 3.544555,-0.892336 1.958181,0 3.494981,0.892336 1.561587,0.867548 2.429136,2.429135 0.892335,1.5615877 0.892335,3.5693427 0,1.982968 -0.867548,3.5445553 -0.867549,1.5615873 -2.429136,2.45392291 -1.5368,0.86754849 -3.519768,0.86754849 z m 0,-2.230839 q 1.264142,0 2.255626,-0.5948904 1.016271,-0.5948904 1.561587,-1.6359486 0.570104,-1.0658453 0.570104,-2.4043487 0,-1.3385033 -0.570104,-2.4043486 -0.545316,-1.0658451 -1.561587,-1.6607361 -0.991484,-0.59489 -2.255626,-0.59489 -1.264142,0 -2.280413,0.59489 -0.991484,0.594891 -1.561588,1.6607361 -0.570103,1.0658453 -0.570103,2.4043486 0,1.3385034 0.570103,2.4043487 0.570104,1.0410582 1.561588,1.6359486 1.016271,0.5948904 2.280413,0.5948904 z"
         id="path978"
         inkscape:connector-curvature="0" /><path
         d="m 91.092594,0.0991484 q -1.982968,0 -3.544556,-0.86754849 -1.561587,-0.89233561 -2.429135,-2.45392291 -0.867549,-1.5615873 -0.867549,-3.5445553 0,-2.007755 0.867549,-3.5693427 0.867548,-1.561587 2.429135,-2.429135 1.561588,-0.892336 3.544556,-0.892336 1.95818,0 3.494981,0.892336 1.561587,0.867548 2.429135,2.429135 0.892336,1.5615877 0.892336,3.5693427 0,1.982968 -0.867548,3.5445553 -0.867549,1.5615873 -2.429136,2.45392291 -1.5368,0.86754849 -3.519768,0.86754849 z m 0,-2.230839 q 1.264142,0 2.255626,-0.5948904 1.016271,-0.5948904 1.561587,-1.6359486 0.570103,-1.0658453 0.570103,-2.4043487 0,-1.3385033 -0.570103,-2.4043486 -0.545316,-1.0658451 -1.561587,-1.6607361 -0.991484,-0.59489 -2.255626,-0.59489 -1.264143,0 -2.280414,0.59489 -0.991484,0.594891 -1.561587,1.6607361 -0.570103,1.0658453 -0.570103,2.4043486 0,1.3385034 0.570103,2.4043487 0.570103,1.0410582 1.561587,1.6359486 1.016271,0.5948904 2.280414,0.5948904 z"
         id="path980"
         inkscape:connector-curvature="0" /><path
         d="m 103.65965,0 q -1.06584,0 -1.93339,-0.5701033 -0.84276,-0.5948904 -1.31372,-1.6359486 -0.470953,-1.0658453 -0.470953,-2.3795616 V -18.11937 q 0,-0.545316 0.347023,-0.892336 0.34702,-0.347019 0.89233,-0.347019 0.54532,0 0.89234,0.347019 0.34702,0.34702 0.34702,0.892336 v 13.5337565 q 0,0.9171227 0.34702,1.5120131 0.34702,0.5948904 0.89233,0.5948904 h 0.61968 q 0.49574,0 0.79319,0.3470194 0.32223,0.3470194 0.32223,0.8923356 0,0.5453162 -0.47096,0.8923356 Q 104.45284,0 103.70923,0 Z"
         id="path982"
         inkscape:connector-curvature="0" /><path
         d="m 126.06719,-19.358725 q 0.52053,0 0.84276,0.347019 0.34702,0.322233 0.34702,0.842762 0,0.520529 -0.34702,0.867548 -0.32223,0.322233 -0.84276,0.322233 h -5.32922 v 15.6902338 q 0,0.5453162 -0.37181,0.9171227 Q 119.99435,0 119.44904,0 q -0.54532,0 -0.91713,-0.3718065 -0.3718,-0.3718065 -0.3718,-0.9171227 V -16.979163 h -5.35402 q -0.52052,0 -0.86754,-0.322233 -0.32224,-0.347019 -0.32224,-0.867548 0,-0.520529 0.32224,-0.842762 0.34702,-0.347019 0.86754,-0.347019 z"
         id="path984"
         inkscape:connector-curvature="0" /><path
         d="m 127.33864,6.7789998 q -0.54532,0 -0.91712,-0.3718065 -0.37181,-0.3718065 -0.37181,-0.9171227 V -11.290796 q 0,-0.570103 0.37181,-0.917123 0.3718,-0.371806 0.91712,-0.371806 h 11.20377 q 0.5701,0 0.91712,0.347019 0.34702,0.322233 0.34702,0.867549 0,0.520529 -0.34702,0.842761 -0.34702,0.322232 -0.91712,0.322232 h -9.91484 v 6.0232657 h 7.1139 q 0.54531,0 0.89233,0.3470194 0.37181,0.3222323 0.37181,0.8427614 0,0.5205291 -0.37181,0.8675485 -0.34702,0.3222323 -0.89233,0.3222323 h -7.1139 v 6.1967749 h 9.91484 q 0.5701,0 0.91712,0.3222323 0.34702,0.3222323 0.34702,0.8427614 0,0.5453162 -0.34702,0.8923356 -0.34702,0.3222323 -0.91712,0.3222323 z"
         style="fill:#00b847;fill-opacity:1"
         id="path986"
         inkscape:connector-curvature="0" /><path
         d="m 152.24913,-2.0821164 q 0.27266,0.3965936 0.27266,0.8427614 0,0.495742 -0.32224,0.8675485 Q 151.87732,0 151.33201,0 q -0.61968,0 -0.99149,-0.4709549 l -5.3788,-7.460917 -5.70103,7.5600654 Q 138.88888,0 138.36835,0 q -0.54531,0 -0.86755,-0.3470194 -0.29744,-0.3470194 -0.29744,-0.8427614 0,-0.495742 0.29744,-0.8923356 l 5.7754,-7.6840009 -5.45316,-7.5600657 q -0.24787,-0.322232 -0.24787,-0.7684 0,-0.520529 0.32223,-0.892335 0.32223,-0.371807 0.86755,-0.371807 0.64446,0 0.91712,0.371807 l 5.32923,7.386555 5.55231,-7.386555 q 0.34702,-0.371807 0.91712,-0.371807 0.52053,0 0.81797,0.347019 0.32224,0.34702 0.32224,0.842762 0,0.421381 -0.27266,0.842761 l -5.65146,7.5352786 z"
         id="path988"
         inkscape:connector-curvature="0" /><path
         d="m 169.00521,-13.657692 q 1.9086,0 3.4454,0.917123 1.56159,0.892335 2.45393,2.47871 0.91712,1.561587 0.91712,3.4949807 v 5.5275233 q 0,0.5453162 -0.37181,0.9171227 -0.34702,0.3470194 -0.89233,0.3470194 -0.54532,0 -0.91713,-0.3470194 -0.34702,-0.3718065 -0.34702,-0.9171227 v -0.9171227 q -0.86754,1.0658453 -2.1069,1.6607357 -1.23935,0.5948904 -2.67701,0.5948904 -1.78467,0 -3.24711,-0.89233559 -1.43765,-0.89233561 -2.28041,-2.45392291 -0.81797,-1.5863744 -0.81797,-3.5197682 0,-1.9333937 0.89233,-3.4949807 0.89234,-1.586375 2.45393,-2.47871 1.58637,-0.917123 3.49498,-0.917123 z m 0,11.5260014 q 1.23935,0 2.23084,-0.5948904 1.01627,-0.6196775 1.58637,-1.6607357 0.5701,-1.0658453 0.5701,-2.3795616 0,-1.3137162 -0.5701,-2.3795615 -0.5701,-1.0658452 -1.58637,-1.6607362 -0.99149,-0.619677 -2.23084,-0.619677 -1.23936,0 -2.25563,0.619677 -0.99148,0.594891 -1.58637,1.6607362 -0.57011,1.0658453 -0.57011,2.3795615 0,1.3137163 0.57011,2.3795616 0.59489,1.0410582 1.58637,1.6607357 1.01627,0.5948904 2.25563,0.5948904 z"
         id="path990"
         inkscape:connector-curvature="0" /><path
         d="m 189.52892,-13.583331 q 0.5701,0 0.91712,0.34702 0.34702,0.347019 0.34702,0.917122 v 11.0550469 q 0,0.5453162 -0.34702,0.9171227 Q 190.09902,0 189.52892,0 q -0.54532,0 -0.91713,-0.3470194 -0.34702,-0.3718065 -0.34702,-0.9171227 v -0.2726581 q -0.79318,0.7931872 -1.88382,1.239355 -1.09063,0.4213807 -2.32998,0.4213807 -1.71031,0 -3.0736,-0.743613 -1.36329,-0.743613 -2.13169,-2.1564777 -0.7684,-1.4376518 -0.7684,-3.4454069 v -6.0976269 q 0,-0.545316 0.34702,-0.892335 0.3718,-0.371807 0.91712,-0.371807 0.54531,0 0.89233,0.371807 0.37181,0.347019 0.37181,0.892335 v 6.0976269 q 0,2.0077551 1.06585,3.0488133 1.09063,1.0162711 2.8753,1.0162711 1.04106,0 1.88382,-0.4213807 0.86755,-0.4213807 1.3385,-1.1402066 0.49574,-0.7188259 0.49574,-1.6111615 v -6.9899625 q 0,-0.570103 0.34702,-0.917122 0.37181,-0.34702 0.91713,-0.34702 z"
         id="path992"
         inkscape:connector-curvature="0" /><path
         d="m 198.62579,-2.47871 q 0.44616,0 0.74361,0.3470194 0.32223,0.3470194 0.32223,0.8923356 0,0.5453162 -0.42138,0.8923356 Q 198.87366,0 198.22919,0 h -0.44617 q -1.21456,0 -2.23083,-0.6196775 -0.99149,-0.6444646 -1.56159,-1.735097 -0.57011,-1.0906324 -0.57011,-2.4539229 v -6.1224136 h -1.1402 q -0.52053,0 -0.84276,-0.297445 -0.32224,-0.297445 -0.32224,-0.743613 0,-0.495742 0.32224,-0.793187 0.32223,-0.297446 0.84276,-0.297446 h 1.1402 v -3.569342 q 0,-0.545316 0.34702,-0.892336 0.34702,-0.347019 0.89234,-0.347019 0.54532,0 0.89234,0.347019 0.34701,0.34702 0.34701,0.892336 v 3.569342 h 2.10691 q 0.52053,0 0.84276,0.297446 0.32223,0.297445 0.32223,0.793187 0,0.446168 -0.32223,0.743613 -0.32223,0.297445 -0.84276,0.297445 h -2.10691 v 6.1224136 q 0,0.991484 0.54532,1.6607357 0.54532,0.6692517 1.3385,0.6692517 z"
         id="path994"
         inkscape:connector-curvature="0" /><path
         d="m 207.94574,0.0991484 q -1.98296,0 -3.54455,-0.86754849 -1.56159,-0.89233561 -2.42914,-2.45392291 -0.86755,-1.5615873 -0.86755,-3.5445553 0,-2.007755 0.86755,-3.5693427 0.86755,-1.561587 2.42914,-2.429135 1.56159,-0.892336 3.54455,-0.892336 1.95818,0 3.49498,0.892336 1.56159,0.867548 2.42914,2.429135 0.89234,1.5615877 0.89234,3.5693427 0,1.982968 -0.86755,3.5445553 -0.86755,1.5615873 -2.42914,2.45392291 -1.5368,0.86754849 -3.51977,0.86754849 z m 0,-2.230839 q 1.26415,0 2.25563,-0.5948904 1.01627,-0.5948904 1.56159,-1.6359486 0.5701,-1.0658453 0.5701,-2.4043487 0,-1.3385033 -0.5701,-2.4043486 -0.54532,-1.0658451 -1.56159,-1.6607361 -0.99148,-0.59489 -2.25563,-0.59489 -1.26414,0 -2.28041,0.59489 -0.99148,0.594891 -1.56159,1.6607361 -0.5701,1.0658453 -0.5701,2.4043486 0,1.3385034 0.5701,2.4043487 0.57011,1.0410582 1.56159,1.6359486 1.01627,0.5948904 2.28041,0.5948904 z"
         id="path996"
         inkscape:connector-curvature="0" /><path
         d="m 231.54305,-13.682479 q 2.15648,0 3.4702,1.412865 1.3385,1.412864 1.3385,3.9411485 v 7.0891105 q 0,0.5453162 -0.34702,0.9171227 -0.34702,0.3470194 -0.91712,0.3470194 -0.54532,0 -0.91712,-0.3470194 -0.34702,-0.3718065 -0.34702,-0.9171227 v -7.0891105 q 0,-1.5120131 -0.7684,-2.2804135 -0.74362,-0.793187 -2.00776,-0.793187 -1.28893,0 -2.13169,0.892336 -0.81797,0.8923353 -0.81797,2.2804129 v 6.9899621 q 0,0.5453162 -0.34702,0.9171227 -0.34702,0.3470194 -0.91713,0.3470194 -0.54531,0 -0.91712,-0.3470194 -0.34702,-0.3718065 -0.34702,-0.9171227 v -7.0891105 q 0,-1.5120131 -0.7684,-2.2804135 -0.74361,-0.793187 -2.00775,-0.793187 -1.31372,0 -2.15648,0.892336 -0.81798,0.8923353 -0.81798,2.2804129 v 6.9899621 q 0,0.5453162 -0.34701,0.9171227 -0.34702,0.3470194 -0.91713,0.3470194 -0.54531,0 -0.91712,-0.3470194 -0.34702,-0.3718065 -0.34702,-0.9171227 v -11.030259 q 0,-0.570104 0.34702,-0.917123 0.37181,-0.34702 0.91712,-0.34702 0.54532,0 0.89234,0.34702 0.34702,0.322232 0.3718,0.867548 0.64447,-0.644464 1.5368,-0.991484 0.89234,-0.371806 1.9334,-0.371806 1.26414,0 2.25562,0.520529 1.01628,0.495742 1.66074,1.437652 0.74361,-0.917123 1.85903,-1.437652 1.11542,-0.520529 2.47871,-0.520529 z"
         id="path998"
         inkscape:connector-curvature="0" /><path
         d="m 244.7298,-13.657692 q 1.90861,0 3.44541,0.917123 1.56158,0.892335 2.45392,2.47871 0.91712,1.561587 0.91712,3.4949807 v 5.5275233 q 0,0.5453162 -0.3718,0.9171227 -0.34702,0.3470194 -0.89234,0.3470194 -0.54532,0 -0.91712,-0.3470194 -0.34702,-0.3718065 -0.34702,-0.9171227 v -0.9171227 q -0.86755,1.0658453 -2.1069,1.6607357 -1.23936,0.5948904 -2.67701,0.5948904 -1.78467,0 -3.24711,-0.89233559 -1.43765,-0.89233561 -2.28041,-2.45392291 -0.81798,-1.5863744 -0.81798,-3.5197682 0,-1.9333937 0.89234,-3.4949807 0.89233,-1.586375 2.45392,-2.47871 1.58637,-0.917123 3.49498,-0.917123 z m 0,11.5260014 q 1.23936,0 2.23084,-0.5948904 1.01627,-0.6196775 1.58637,-1.6607357 0.57011,-1.0658453 0.57011,-2.3795616 0,-1.3137162 -0.57011,-2.3795615 -0.5701,-1.0658452 -1.58637,-1.6607362 -0.99148,-0.619677 -2.23084,-0.619677 -1.23935,0 -2.25563,0.619677 -0.99148,0.594891 -1.58637,1.6607362 -0.5701,1.0658453 -0.5701,2.3795615 0,1.3137163 0.5701,2.3795616 0.59489,1.0410582 1.58637,1.6607357 1.01628,0.5948904 2.25563,0.5948904 z"
         id="path1000"
         inkscape:connector-curvature="0" /><path
         d="m 258.78408,-2.47871 q 0.44617,0 0.74361,0.3470194 0.32224,0.3470194 0.32224,0.8923356 0,0.5453162 -0.42138,0.8923356 Q 259.03195,0 258.38749,0 h -0.44617 q -1.21457,0 -2.23084,-0.6196775 -0.99148,-0.6444646 -1.56159,-1.735097 -0.5701,-1.0906324 -0.5701,-2.4539229 v -6.1224136 h -1.14021 q -0.52053,0 -0.84276,-0.297445 -0.32223,-0.297445 -0.32223,-0.743613 0,-0.495742 0.32223,-0.793187 0.32223,-0.297446 0.84276,-0.297446 h 1.14021 v -3.569342 q 0,-0.545316 0.34702,-0.892336 0.34702,-0.347019 0.89233,-0.347019 0.54532,0 0.89234,0.347019 0.34702,0.34702 0.34702,0.892336 v 3.569342 h 2.1069 q 0.52053,0 0.84276,0.297446 0.32224,0.297445 0.32224,0.793187 0,0.446168 -0.32224,0.743613 -0.32223,0.297445 -0.84276,0.297445 h -2.1069 v 6.1224136 q 0,0.991484 0.54532,1.6607357 0.54531,0.6692517 1.3385,0.6692517 z"
         id="path1002"
         inkscape:connector-curvature="0" /><path
         d="m 264.18768,0 q -0.54532,0 -0.91713,-0.3470194 -0.34702,-0.3718065 -0.34702,-0.9171227 V -12.294402 q 0,-0.570103 0.34702,-0.917122 0.37181,-0.34702 0.91713,-0.34702 0.5701,0 0.91712,0.34702 0.34702,0.347019 0.34702,0.917122 v 11.0302599 q 0,0.5453162 -0.34702,0.9171227 Q 264.75778,0 264.18768,0 Z m 0,-15.764595 q -0.66926,0 -1.165,-0.470955 -0.47095,-0.495742 -0.47095,-1.164994 0,-0.669252 0.47095,-1.140207 0.49574,-0.495742 1.165,-0.495742 0.66925,0 1.1402,0.495742 0.49574,0.470955 0.49574,1.140207 0,0.669252 -0.49574,1.164994 -0.47095,0.470955 -1.1402,0.470955 z"
         id="path1004"
         inkscape:connector-curvature="0" /><path
         d="m 274.62303,0.0991484 q -1.98296,0 -3.54455,-0.86754849 -1.56159,-0.89233561 -2.42914,-2.45392291 -0.86754,-1.5615873 -0.86754,-3.5445553 0,-2.007755 0.86754,-3.5693427 0.86755,-1.561587 2.42914,-2.429135 1.56159,-0.892336 3.54455,-0.892336 1.95819,0 3.49499,0.892336 1.56158,0.867548 2.42913,2.429135 0.89234,1.5615877 0.89234,3.5693427 0,1.982968 -0.86755,3.5445553 -0.86755,1.5615873 -2.42914,2.45392291 -1.5368,0.86754849 -3.51977,0.86754849 z m 0,-2.230839 q 1.26415,0 2.25563,-0.5948904 1.01627,-0.5948904 1.56159,-1.6359486 0.5701,-1.0658453 0.5701,-2.4043487 0,-1.3385033 -0.5701,-2.4043486 -0.54532,-1.0658451 -1.56159,-1.6607361 -0.99148,-0.59489 -2.25563,-0.59489 -1.26414,0 -2.28041,0.59489 -0.99148,0.594891 -1.56159,1.6607361 -0.5701,1.0658453 -0.5701,2.4043486 0,1.3385034 0.5701,2.4043487 0.57011,1.0410582 1.56159,1.6359486 1.01627,0.5948904 2.28041,0.5948904 z"
         id="path1006"
         inkscape:connector-curvature="0" /><path
         d="m 290.70987,-13.682479 q 1.71031,0 3.0736,0.743613 1.36329,0.743613 2.13169,2.181265 0.7684,1.4128644 0.7684,3.4206194 v 6.0976266 q 0,0.5453162 -0.37181,0.9171227 -0.34702,0.3470194 -0.89233,0.3470194 -0.54532,0 -0.91713,-0.3470194 -0.34701,-0.3718065 -0.34701,-0.9171227 v -6.0976266 q 0,-2.007755 -1.09064,-3.0240264 -1.06584,-1.041058 -2.85051,-1.041058 -1.04106,0 -1.90861,0.421381 -0.84276,0.42138 -1.3385,1.1402064 -0.47096,0.7188259 -0.47096,1.6111615 v 6.9899621 q 0,0.5453162 -0.34702,0.9171227 -0.34702,0.3470194 -0.91712,0.3470194 -0.54532,0 -0.91712,-0.3470194 -0.34702,-0.3718065 -0.34702,-0.9171227 v -11.055047 q 0,-0.570103 0.34702,-0.917122 0.3718,-0.34702 0.91712,-0.34702 0.5701,0 0.91712,0.34702 0.34702,0.347019 0.34702,0.917122 v 0.272659 q 0.79319,-0.793188 1.88382,-1.214568 1.09063,-0.446168 2.32999,-0.446168 z"
         id="path1008"
         inkscape:connector-curvature="0" /><path
         d="m 311.48145,-2.47871 q 0.44617,0 0.74362,0.3470194 0.32223,0.3470194 0.32223,0.8923356 0,0.5453162 -0.42138,0.8923356 Q 311.72932,0 311.08486,0 h -0.44617 q -1.21457,0 -2.23084,-0.6196775 -0.99148,-0.6444646 -1.56158,-1.735097 -0.57011,-1.0906324 -0.57011,-2.4539229 v -6.1224136 h -1.1402 q -0.52053,0 -0.84277,-0.297445 -0.32223,-0.297445 -0.32223,-0.743613 0,-0.495742 0.32223,-0.793187 0.32224,-0.297446 0.84277,-0.297446 h 1.1402 v -3.569342 q 0,-0.545316 0.34702,-0.892336 0.34702,-0.347019 0.89234,-0.347019 0.54531,0 0.89233,0.347019 0.34702,0.34702 0.34702,0.892336 v 3.569342 h 2.10691 q 0.52052,0 0.84276,0.297446 0.32223,0.297445 0.32223,0.793187 0,0.446168 -0.32223,0.743613 -0.32224,0.297445 -0.84276,0.297445 h -2.10691 v 6.1224136 q 0,0.991484 0.54532,1.6607357 0.54531,0.6692517 1.3385,0.6692517 z"
         id="path1010"
         inkscape:connector-curvature="0" /><path
         d="m 320.80141,0.0991484 q -1.98297,0 -3.54456,-0.86754849 -1.56158,-0.89233561 -2.42913,-2.45392291 -0.86755,-1.5615873 -0.86755,-3.5445553 0,-2.007755 0.86755,-3.5693427 0.86755,-1.561587 2.42913,-2.429135 1.56159,-0.892336 3.54456,-0.892336 1.95818,0 3.49498,0.892336 1.56159,0.867548 2.42914,2.429135 0.89233,1.5615877 0.89233,3.5693427 0,1.982968 -0.86755,3.5445553 -0.86754,1.5615873 -2.42913,2.45392291 -1.5368,0.86754849 -3.51977,0.86754849 z m 0,-2.230839 q 1.26414,0 2.25563,-0.5948904 1.01627,-0.5948904 1.56158,-1.6359486 0.57011,-1.0658453 0.57011,-2.4043487 0,-1.3385033 -0.57011,-2.4043486 -0.54531,-1.0658451 -1.56158,-1.6607361 -0.99149,-0.59489 -2.25563,-0.59489 -1.26414,0 -2.28041,0.59489 -0.99149,0.594891 -1.56159,1.6607361 -0.5701,1.0658453 -0.5701,2.4043486 0,1.3385034 0.5701,2.4043487 0.5701,1.0410582 1.56159,1.6359486 1.01627,0.5948904 2.28041,0.5948904 z"
         id="path1012"
         inkscape:connector-curvature="0" /><path
         d="m 336.29335,0.0991484 q -1.98296,0 -3.54455,-0.86754849 -1.56159,-0.89233561 -2.42914,-2.45392291 -0.86755,-1.5615873 -0.86755,-3.5445553 0,-2.007755 0.86755,-3.5693427 0.86755,-1.561587 2.42914,-2.429135 1.56159,-0.892336 3.54455,-0.892336 1.95818,0 3.49498,0.892336 1.56159,0.867548 2.42914,2.429135 0.89234,1.5615877 0.89234,3.5693427 0,1.982968 -0.86755,3.5445553 -0.86755,1.5615873 -2.42914,2.45392291 -1.5368,0.86754849 -3.51977,0.86754849 z m 0,-2.230839 q 1.26415,0 2.25563,-0.5948904 1.01627,-0.5948904 1.56159,-1.6359486 0.5701,-1.0658453 0.5701,-2.4043487 0,-1.3385033 -0.5701,-2.4043486 -0.54532,-1.0658451 -1.56159,-1.6607361 -0.99148,-0.59489 -2.25563,-0.59489 -1.26414,0 -2.28041,0.59489 -0.99148,0.594891 -1.56159,1.6607361 -0.5701,1.0658453 -0.5701,2.4043486 0,1.3385034 0.5701,2.4043487 0.57011,1.0410582 1.56159,1.6359486 1.01627,0.5948904 2.28041,0.5948904 z"
         id="path1014"
         inkscape:connector-curvature="0" /><path
         d="m 348.86039,0 q -1.06585,0 -1.9334,-0.5701033 -0.84276,-0.5948904 -1.31371,-1.6359486 -0.47096,-1.0658453 -0.47096,-2.3795616 V -18.11937 q 0,-0.545316 0.34702,-0.892336 0.34702,-0.347019 0.89234,-0.347019 0.54531,0 0.89233,0.347019 0.34702,0.34702 0.34702,0.892336 v 13.5337565 q 0,0.9171227 0.34702,1.5120131 0.34702,0.5948904 0.89234,0.5948904 h 0.61968 q 0.49574,0 0.79318,0.3470194 0.32224,0.3470194 0.32224,0.8923356 0,0.5453162 -0.47096,0.8923356 Q 349.65358,0 348.90996,0 Z"
         id="path1016"
         inkscape:connector-curvature="0" /></g></g></svg>
