<?xml version="1.0" encoding="UTF-8" standalone="no"?>
<!-- Created with Inkscape (http://www.inkscape.org/) -->

<svg
   version="1.1"
   id="svg2"
   xml:space="preserve"
   width="269.33334"
   height="124"
   viewBox="0 0 269.33334 124"
   sodipodi:docname="dropdown1.pdf"
   xmlns:inkscape="http://www.inkscape.org/namespaces/inkscape"
   xmlns:sodipodi="http://sodipodi.sourceforge.net/DTD/sodipodi-0.dtd"
   xmlns="http://www.w3.org/2000/svg"
   xmlns:svg="http://www.w3.org/2000/svg"><defs
     id="defs6"><clipPath
       clipPathUnits="userSpaceOnUse"
       id="clipPath36"><path
         d="M 1890.93,642.691 H 378.66 V 343.984 h 1512.27 z"
         clip-rule="evenodd"
         id="path34" /></clipPath></defs><sodipodi:namedview
     id="namedview4"
     pagecolor="#ffffff"
     bordercolor="#666666"
     borderopacity="1.0"
     inkscape:pageshadow="2"
     inkscape:pageopacity="0.0"
     inkscape:pagecheckerboard="0" /><g
     id="g8"
     inkscape:groupmode="layer"
     inkscape:label="dropdown1"
     transform="matrix(1.3333333,0,0,-1.3333333,0,124)"><g
       id="g10"
       transform="scale(0.1)"><path
         d="M 9.8125,745.945 V 863.953 H 2012.65 V 12.0898 H 9.8125 V 745.945 H 2012.65"
         style="fill:#fafafa;fill-opacity:1;fill-rule:nonzero;stroke:none"
         id="path12" /><g
         id="g14"
         transform="scale(1.0001,-0.999898)"><path
           d="m 9.8115,-746.021 v -118.02 H 2012.44 V -12.0911 H 9.8115 V -746.021 H 2012.44"
           style="fill:none;stroke:#666666;stroke-width:7.37617;stroke-linecap:butt;stroke-linejoin:miter;stroke-miterlimit:4;stroke-dasharray:none;stroke-opacity:1"
           id="path16" /></g><path
         d="M 13.5039,860.266 H 2008.96 V 749.633 H 13.5039 v 110.633"
         style="fill:#dedede;fill-opacity:1;fill-rule:nonzero;stroke:none"
         id="path18" /><g
         id="g20"
         transform="scale(1.0001,-0.999898)"><path
           d="m 1923.93,-834.534 59.01,59.006 m 0,-59.006 -59.01,59.006 m -99.58,-55.318 h 51.63 v 51.63 h -51.63 z m -103.26,51.63 h 51.63"
           style="fill:none;stroke:#666666;stroke-width:7.37617;stroke-linecap:butt;stroke-linejoin:miter;stroke-miterlimit:4;stroke-dasharray:none;stroke-opacity:1"
           id="path22" /></g><g
         id="g24"
         transform="scale(10)"><text
           transform="matrix(1,0,0,-0.99980004,4.66992,78.6512)"
           style="font-variant:normal;font-weight:bold;font-size:5.52842px;font-family:Arial;-inkscape-font-specification:Arial-BoldMT;writing-mode:lr-tb;fill:#000000;fill-opacity:1;fill-rule:nonzero;stroke:none"
           id="text28"><tspan
             x="0 4.6051702 7.67977 10.754371 13.82897 16.90357 20.280905 23.355503 24.891436 26.732397 28.26833 30.109291 31.645224"
             y="0"
             sodipodi:role="line"
             id="tspan26">Message title</tspan></text></g><g
         id="g30"><g
           id="g32"
           clip-path="url(#clipPath36)"><g
             id="g38"
             transform="scale(10)"><text
               transform="matrix(1,0,0,-0.99980004,37.866,59.1063)"
               style="font-variant:normal;font-weight:normal;font-size:5.52842px;font-family:ArialMT;-inkscape-font-specification:ArialMT;writing-mode:lr-tb;fill:#000000;fill-opacity:1;fill-rule:nonzero;stroke:none"
               id="text42"><tspan
                 x="0 3.3769433 6.4515419 9.5261402 11.062073 14.136671 17.211269 18.439779 21.203987 23.968195 25.504522 28.579121 30.420082 33.494682 37.486855 40.561455 42.097782 43.633717 46.708313 49.472523 51.008457 52.236576 55.311176 59.916344 62.990944 65.75515 67.291084 70.366081 73.130287 76.204895 78.04586 79.581795 81.117729 84.192329 87.266937 88.802872 90.031387 93.105995 95.870201 98.634407 100.17073 103.24534 106.31995 109.39455"
                 y="0"
                 sodipodi:role="line"
                 id="tspan40">The quick brown fox jumps over the lazy dog.</tspan></text></g></g></g><g
         id="g44"
         transform="scale(1.0001,-0.999898)"><path
           d="m 194.219,-643.909 c -51.526,0 -93.358,41.832 -93.358,93.357 0,51.521 41.832,93.357 93.358,93.357 51.522,0 93.353,-41.836 93.353,-93.357 0,-51.525 -41.831,-93.357 -93.353,-93.357 z"
           style="fill:none;stroke:#ffffff;stroke-width:29.9657;stroke-linecap:round;stroke-linejoin:round;stroke-miterlimit:4;stroke-dasharray:none;stroke-opacity:1"
           id="path46" /></g><g
         id="g48"
         transform="scale(1.0001,-0.999898)"><path
           d="m 194.219,-643.909 c -51.526,0 -93.358,41.832 -93.358,93.357 0,51.521 41.832,93.357 93.358,93.357 51.522,0 93.353,-41.836 93.353,-93.357 0,-51.525 -41.831,-93.357 -93.353,-93.357 z"
           style="fill:none;stroke:#666666;stroke-width:11.5253;stroke-linecap:butt;stroke-linejoin:miter;stroke-miterlimit:4;stroke-dasharray:none;stroke-opacity:1"
           id="path50" /></g><path
         d="m 181.574,567.523 c -2.386,0 -4.664,-0.16 -6.832,-0.488 v 2.442 c 7.59,2.168 15.992,5.148 25.211,8.941 l 0.649,-0.488 v -57.723 c 0,-5.855 0.652,-9.594 1.953,-11.223 1.41,-1.515 4.769,-2.492 10.082,-2.925 v -2.438 H 174.09 v 2.438 c 5.64,0.324 9.164,1.3 10.574,2.925 1.516,1.629 2.277,5.368 2.277,11.223 v 37.723 c 0,3.578 -0.433,6.07 -1.3,7.48 -0.762,1.41 -2.118,2.113 -4.067,2.113 z m 10.735,47.157 c 2.382,0 4.39,-0.813 6.015,-2.438 1.629,-1.625 2.442,-3.578 2.442,-5.855 0,-2.383 -0.813,-4.391 -2.442,-6.016 -1.625,-1.516 -3.633,-2.277 -6.015,-2.277 -2.278,0 -4.231,0.812 -5.856,2.441 -1.519,1.625 -2.277,3.578 -2.277,5.852 0,2.277 0.812,4.23 2.437,5.855 1.629,1.625 3.528,2.438 5.696,2.438"
         style="fill:#4d4d4d;fill-opacity:1;fill-rule:nonzero;stroke:none"
         id="path52" /><path
         d="m 1459.38,251.793 h 431.55 V 104.285 h -431.55 v 147.508"
         style="fill:#c8c8c8;fill-opacity:1;fill-rule:nonzero;stroke:none"
         id="path54" /><g
         id="g56"
         transform="scale(1.0001,-0.999898)"><path
           d="m 1459.23,-251.819 h 431.51 v 147.523 h -431.51 z"
           style="fill:none;stroke:#666666;stroke-width:7.37617;stroke-linecap:butt;stroke-linejoin:round;stroke-miterlimit:4;stroke-dasharray:none;stroke-opacity:1"
           id="path58" /></g><g
         id="g60"
         transform="scale(10)"><text
           transform="matrix(1,0,0,-0.99980004,163.274,15.591)"
           style="font-variant:normal;font-weight:bold;font-size:5.52842px;font-family:Arial;-inkscape-font-specification:Arial-BoldMT;writing-mode:lr-tb;fill:#000000;fill-opacity:1;fill-rule:nonzero;stroke:none"
           id="text64"><tspan
             x="0 4.299984"
             y="0"
             sodipodi:role="line"
             id="tspan62">OK</tspan></text></g><path
         d="m 164.73,627.938 c 0,-15.274 -5.402,-28.313 -16.207,-39.114 -10.8,-10.801 -23.843,-16.199 -39.121,-16.199 -15.277,0 -28.32,5.398 -39.1207,16.199 -10.8047,10.801 -16.2071,23.84 -16.2071,39.114 0,15.277 5.4024,28.316 16.2071,39.117 10.8007,10.8 23.8437,16.199 39.1207,16.199 15.278,0 28.321,-5.399 39.121,-16.199 10.805,-10.801 16.207,-23.84 16.207,-39.117"
         style="fill:#ffffcc;fill-opacity:1;fill-rule:nonzero;stroke:none"
         id="path66" /><g
         id="g68"
         transform="scale(1.0001,-0.999898)"><path
           d="m 164.714,-628.001 c 0,15.275 -5.402,28.315 -16.206,39.117 -10.799,10.802 -23.841,16.201 -39.117,16.201 -15.2756,0 -28.3172,-5.399 -39.1169,-16.201 -10.8036,-10.802 -16.2054,-23.842 -16.2054,-39.117 0,-15.279 5.4018,-28.32 16.2054,-39.122 10.7997,-10.801 23.8413,-16.2 39.1169,-16.2 15.276,0 28.318,5.399 39.117,16.2 10.804,10.802 16.206,23.843 16.206,39.122 z"
           style="fill:none;stroke:#ffff66;stroke-width:7.37617;stroke-linecap:butt;stroke-linejoin:miter;stroke-miterlimit:4;stroke-dasharray:none;stroke-opacity:1"
           id="path70" /></g><g
         id="g72"
         transform="scale(10)"><text
           transform="matrix(1,0,0,-0.99980004,9.60898,61.3188)"
           style="font-variant:normal;font-weight:bold;font-size:4.79498px;font-family:Arial;-inkscape-font-specification:Arial-BoldMT;writing-mode:lr-tb;fill:#000000;fill-opacity:1;fill-rule:nonzero;stroke:none"
           id="text76"><tspan
             x="0"
             y="0"
             id="tspan74">2</tspan></text></g><path
         d="m 511.445,863.953 c 0,-15.277 -5.402,-28.312 -16.207,-39.113 -10.8,-10.801 -23.843,-16.203 -39.121,-16.203 -15.277,0 -28.316,5.402 -39.121,16.203 -10.805,10.801 -16.207,23.836 -16.207,39.113 0,15.274 5.402,28.313 16.207,39.113 10.805,10.801 23.844,16.204 39.121,16.204 15.278,0 28.321,-5.403 39.121,-16.204 10.805,-10.8 16.207,-23.839 16.207,-39.113"
         style="fill:#ffffcc;fill-opacity:1;fill-rule:nonzero;stroke:none"
         id="path78" /><g
         id="g80"
         transform="scale(1.0001,-0.999898)"><path
           d="m 511.393,-864.041 c 0,15.279 -5.402,28.315 -16.205,39.117 -10.8,10.802 -23.841,16.205 -39.117,16.205 -15.276,0 -28.314,-5.403 -39.117,-16.205 -10.804,-10.802 -16.206,-23.838 -16.206,-39.117 0,-15.275 5.402,-28.315 16.206,-39.117 10.803,-10.802 23.841,-16.205 39.117,-16.205 15.276,0 28.317,5.403 39.117,16.205 10.803,10.802 16.205,23.842 16.205,39.117 z"
           style="fill:none;stroke:#ffff66;stroke-width:7.37617;stroke-linecap:butt;stroke-linejoin:miter;stroke-miterlimit:4;stroke-dasharray:none;stroke-opacity:1"
           id="path82" /></g><g
         id="g84"
         transform="scale(10)"><text
           transform="matrix(1,0,0,-0.99980004,44.2805,84.9203)"
           style="font-variant:normal;font-weight:bold;font-size:4.79498px;font-family:Arial;-inkscape-font-specification:Arial-BoldMT;writing-mode:lr-tb;fill:#000000;fill-opacity:1;fill-rule:nonzero;stroke:none"
           id="text88"><tspan
             x="0"
             y="0"
             id="tspan86">3</tspan></text></g><path
         d="m 1629.05,613.188 c 0,-15.274 -5.4,-28.313 -16.21,-39.114 -10.8,-10.801 -23.84,-16.203 -39.12,-16.203 -15.27,0 -28.32,5.402 -39.12,16.203 -10.8,10.801 -16.21,23.84 -16.21,39.114 0,15.277 5.41,28.312 16.21,39.113 10.8,10.804 23.85,16.203 39.12,16.203 15.28,0 28.32,-5.399 39.12,-16.203 10.81,-10.801 16.21,-23.836 16.21,-39.113"
         style="fill:#ffffcc;fill-opacity:1;fill-rule:nonzero;stroke:none"
         id="path90" /><g
         id="g92"
         transform="scale(1.0001,-0.999898)"><path
           d="m 1628.88,-613.25 c 0,15.275 -5.4,28.315 -16.2,39.117 -10.8,10.802 -23.84,16.205 -39.12,16.205 -15.27,0 -28.31,-5.403 -39.12,-16.205 -10.8,-10.802 -16.2,-23.842 -16.2,-39.117 0,-15.279 5.4,-28.315 16.2,-39.117 10.81,-10.806 23.85,-16.205 39.12,-16.205 15.28,0 28.32,5.399 39.12,16.205 10.8,10.802 16.2,23.838 16.2,39.117 z"
           style="fill:none;stroke:#ffff66;stroke-width:7.37617;stroke-linecap:butt;stroke-linejoin:miter;stroke-miterlimit:4;stroke-dasharray:none;stroke-opacity:1"
           id="path94" /></g><g
         id="g96"
         transform="scale(10)"><text
           transform="matrix(1,0,0,-0.99980004,156.041,59.8438)"
           style="font-variant:normal;font-weight:bold;font-size:4.79498px;font-family:Arial;-inkscape-font-specification:Arial-BoldMT;writing-mode:lr-tb;fill:#000000;fill-opacity:1;fill-rule:nonzero;stroke:none"
           id="text100"><tspan
             x="0"
             y="0"
             id="tspan98">4</tspan></text></g><path
         d="m 400.789,321.859 h 11.066 v -7.375 h -11.066 m 22.133,7.375 h 11.066 v -7.375 h -11.066 m 22.129,7.375 h 11.066 v -7.375 h -11.066 m 22.133,7.375 h 11.066 v -7.375 h -11.066 m 22.129,7.375 h 11.066 v -7.375 h -11.066 m 22.132,7.375 h 11.067 v -7.375 h -11.067 m 22.129,7.375 h 11.067 v -7.375 h -11.067 m 22.133,7.375 h 11.066 v -7.375 h -11.066 m 22.129,7.375 h 11.066 v -7.375 h -11.066 m 22.133,7.375 h 11.062 v -7.375 h -11.062 m 22.129,7.375 h 11.066 v -7.375 h -11.066 m 22.132,7.375 h 11.063 v -7.375 H 644.23 m 22.129,7.375 h 11.067 v -7.375 h -11.067 m 22.133,7.375 h 11.063 v -7.375 h -11.063 m 22.129,7.375 h 11.067 v -7.375 h -11.067 m 22.133,7.375 h 11.062 v -7.375 h -11.062 m 22.129,7.375 h 11.066 v -7.375 h -11.066 m 22.133,7.375 h 11.062 v -7.375 h -11.062 m 22.129,7.375 h 11.066 v -7.375 h -11.066 m 22.132,7.375 h 11.063 v -7.375 h -11.063 m 22.129,7.375 h 11.067 v -7.375 h -11.067 m 22.129,7.375 h 11.067 v -7.375 h -11.067 m 22.133,7.375 h 11.066 v -7.375 h -11.066 m 22.129,7.375 h 11.066 v -7.375 h -11.066 m 22.133,7.375 h 11.066 v -7.375 H 931.93 m 22.129,7.375 h 11.066 v -7.375 h -11.066 m 22.132,7.375 h 11.067 v -7.375 h -11.067 m 22.129,7.375 h 11.07 v -7.375 h -11.07 m 22.13,7.375 h 11.07 v -7.375 h -11.07 m 22.13,7.375 h 11.07 v -7.375 h -11.07 m 22.13,7.375 h 11.07 v -7.375 h -11.07 m 22.13,7.375 h 11.07 v -7.375 h -11.07 m 22.14,7.375 h 11.06 v -7.375 h -11.06 m 22.13,7.375 h 11.06 v -7.375 h -11.06 m 22.13,7.375 h 11.06 v -7.375 h -11.06 m 22.13,7.375 h 11.06 v -7.375 h -11.06 m 22.13,7.375 h 11.06 v -7.375 h -11.06 m 22.13,7.375 h 11.07 v -7.375 h -11.07 m 22.13,7.375 h 11.06 v -7.375 h -11.06 m 22.13,7.375 h 11.07 v -7.375 h -11.07 m 22.13,7.375 h 11.07 v -7.375 h -11.07 m 22.13,7.375 h 11.07 v -7.375 h -11.07 m 22.13,7.375 h 11.07 v -7.375 h -11.07 m 22.13,7.375 h 11.07 v -7.375 h -11.07 m 22.13,7.375 h 11.07 v -7.375 h -11.07 m 22.14,7.375 h 11.06 v -7.375 h -11.06 m 22.12,7.375 h 11.07 v -7.375 h -11.07 m 22.14,7.375 H 1452 v -7.375 h -11.06 m 22.13,7.375 h 11.06 v -7.375 h -11.06 m 22.13,7.375 h 11.07 v -7.375 h -11.07 m 22.13,7.375 h 11.06 v -7.375 h -11.06 m 22.13,7.375 h 11.07 v -7.375 h -11.07 m 22.13,7.375 h 11.07 v -7.375 h -11.07 m 22.13,7.375 h 11.07 v -7.375 h -11.07 m 22.13,7.375 h 11.07 v -7.375 h -11.07 m 22.13,7.375 h 11.07 v -7.375 h -11.07 m 22.13,7.375 h 11.07 v -7.375 h -11.07 m 22.14,7.375 h 11.06 v -7.375 h -11.06 m 22.13,7.375 h 11.06 v -7.375 h -11.06 m 22.13,7.375 h 11.06 v -7.375 h -11.06 m 22.13,7.375 h 11.06 v -7.375 h -11.06 m 22.13,7.375 h 11.06 v -7.375 h -11.06 m 22.13,7.375 h 11.06 v -7.375 h -11.06 m 22.13,7.375 h 11.06 v -7.375 h -11.06 m 22.13,7.375 h 11.07 v -7.375 h -11.07 m 22.13,7.375 h 11.07 v -7.375 h -11.07 m 22.13,7.375 h 11.07 v -7.375 h -11.07"
         style="fill:#c0c0c0;fill-opacity:1;fill-rule:nonzero;stroke:none"
         id="path102" /><path
         d="m 389.727,347.672 v -11.063 h -7.379 v 11.063 m 7.379,-22.125 v -11.063 h -7.379 v 11.063 m 7.379,-22.125 v -11.067 h -7.379 v 11.067"
         style="fill:#c0c0c0;fill-opacity:1;fill-rule:nonzero;stroke:none"
         id="path104" /><path
         d="m 1890.93,347.672 v -11.063 h -7.38 v 11.063 m 7.38,-22.125 v -11.063 h -7.38 v 11.063 m 7.38,-22.125 v -11.067 h -7.38 v 11.067"
         style="fill:#c0c0c0;fill-opacity:1;fill-rule:nonzero;stroke:none"
         id="path106" /><path
         d="m 529.887,281.293 c 0,-15.273 -5.403,-28.313 -16.203,-39.113 -10.805,-10.801 -23.844,-16.2 -39.125,-16.2 -15.278,0 -28.317,5.399 -39.121,16.2 -10.805,10.8 -16.204,23.84 -16.204,39.113 0,15.277 5.399,28.312 16.204,39.117 10.804,10.801 23.843,16.199 39.121,16.199 15.281,0 28.32,-5.398 39.125,-16.199 10.8,-10.805 16.203,-23.84 16.203,-39.117"
         style="fill:#ffffcc;fill-opacity:1;fill-rule:nonzero;stroke:none"
         id="path108" /><g
         id="g110"
         transform="scale(1.0001,-0.999898)"><path
           d="m 529.833,-281.322 c 0,15.275 -5.402,28.316 -16.202,39.118 -10.803,10.802 -23.841,16.201 -39.121,16.201 -15.276,0 -28.313,-5.399 -39.117,-16.201 -10.803,-10.802 -16.201,-23.843 -16.201,-39.118 0,-15.278 5.398,-28.315 16.201,-39.121 10.804,-10.802 23.841,-16.201 39.117,-16.201 15.28,0 28.318,5.399 39.121,16.201 10.8,10.806 16.202,23.843 16.202,39.121 z"
           style="fill:none;stroke:#ffff66;stroke-width:7.37617;stroke-linecap:butt;stroke-linejoin:miter;stroke-miterlimit:4;stroke-dasharray:none;stroke-opacity:1"
           id="path112" /></g><g
         id="g114"
         transform="scale(10)"><text
           transform="matrix(1,0,0,-0.99980004,46.1246,26.6543)"
           style="font-variant:normal;font-weight:bold;font-size:4.79498px;font-family:Arial;-inkscape-font-specification:Arial-BoldMT;writing-mode:lr-tb;fill:#000000;fill-opacity:1;fill-rule:nonzero;stroke:none"
           id="text118"><tspan
             x="0"
             y="0"
             id="tspan116">1</tspan></text></g><path
         d="M 957.75,251.793 H 1389.3 V 104.285 H 957.75 v 147.508"
         style="fill:#fafafa;fill-opacity:1;fill-rule:nonzero;stroke:none"
         id="path120" /><g
         id="g122"
         transform="scale(1.0001,-0.999898)"><path
           d="m 957.653,-251.819 h 431.507 v 147.523 H 957.653 Z"
           style="fill:none;stroke:#666666;stroke-width:7.37617;stroke-linecap:butt;stroke-linejoin:round;stroke-miterlimit:4;stroke-dasharray:none;stroke-opacity:1"
           id="path124" /></g><g
         id="g126"
         transform="scale(10)"><text
           transform="matrix(1,0,0,-0.99980004,108.316,15.9602)"
           style="font-variant:normal;font-weight:normal;font-size:1e-32px;font-family:Arial;-inkscape-font-specification:Arial;writing-mode:lr-tb;fill:#000000;fill-opacity:1;fill-rule:nonzero;stroke:none"
           id="text130"><tspan
             x="0 3.8256636 6.8773489 10.304966 13.135515 16.214842"
             y="0"
             sodipodi:role="line"
             id="tspan128">Cancel</tspan></text></g><path
         d="M 367.594,532.059 H 1905.68 V 384.551 H 367.594 v 147.508"
         style="fill:#f5f5f5;fill-opacity:1;fill-rule:nonzero;stroke:none"
         id="path132" /><g
         id="g134"
         transform="scale(1.0001,-0.999898)"><path
           d="M 367.556,-532.113 H 1905.49 V -384.59 H 367.556 Z"
           style="fill:none;stroke:#666666;stroke-width:7.37617;stroke-linecap:butt;stroke-linejoin:miter;stroke-miterlimit:4;stroke-dasharray:none;stroke-opacity:1"
           id="path136" /></g><path
         d="m 1809.78,473.055 h 59.02 l -29.51,-29.5 z"
         style="fill:#999999;fill-opacity:1;fill-rule:nonzero;stroke:none"
         id="path138" /><g
         id="g140"
         transform="scale(1.0001,-0.999898)"><path
           d="m 1809.6,-473.103 h 59.01 l -29.51,29.503 z"
           style="fill:none;stroke:#999999;stroke-width:7.37617;stroke-linecap:butt;stroke-linejoin:round;stroke-miterlimit:4;stroke-dasharray:none;stroke-opacity:1"
           id="path142" /></g><g
         id="g144"
         transform="scale(10)"><text
           transform="matrix(1,0,0,-0.99980004,40.448,43.9867)"
           style="font-variant:normal;font-weight:normal;font-size:1e-32px;font-family:Arial;-inkscape-font-specification:Arial;writing-mode:lr-tb;fill:#000000;fill-opacity:1;fill-rule:nonzero;stroke:none"
           id="text148"><tspan
             x="0 2.4988439 4.5664711 7.6457987 12.809339 14.556318"
             y="0"
             sodipodi:role="line"
             id="tspan146">Item 1</tspan></text></g><path
         d="m 1979.45,543.121 c 0,-15.273 -5.4,-28.312 -16.2,-39.113 -10.8,-10.801 -23.85,-16.203 -39.12,-16.203 -15.28,0 -28.32,5.402 -39.13,16.203 -10.8,10.801 -16.2,23.84 -16.2,39.113 0,15.277 5.4,28.313 16.2,39.113 10.81,10.801 23.85,16.204 39.13,16.204 15.27,0 28.32,-5.403 39.12,-16.204 10.8,-10.8 16.2,-23.836 16.2,-39.113"
         style="fill:#ffffcc;fill-opacity:1;fill-rule:nonzero;stroke:none"
         id="path150" /><g
         id="g152"
         transform="scale(1.0001,-0.999898)"><path
           d="m 1979.25,-543.176 c 0,15.275 -5.4,28.315 -16.2,39.117 -10.8,10.802 -23.85,16.205 -39.12,16.205 -15.28,0 -28.31,-5.403 -39.12,-16.205 -10.8,-10.802 -16.2,-23.842 -16.2,-39.117 0,-15.279 5.4,-28.316 16.2,-39.118 10.81,-10.802 23.84,-16.204 39.12,-16.204 15.27,0 28.32,5.402 39.12,16.204 10.8,10.802 16.2,23.839 16.2,39.118 z"
           style="fill:none;stroke:#ffff66;stroke-width:7.37617;stroke-linecap:butt;stroke-linejoin:miter;stroke-miterlimit:4;stroke-dasharray:none;stroke-opacity:1"
           id="path154" /></g><g
         id="g156"
         transform="scale(10)"><text
           transform="matrix(1,0,0,-0.99980004,191.081,52.8371)"
           style="font-variant:normal;font-weight:bold;font-size:4.79498px;font-family:Arial;-inkscape-font-specification:Arial-BoldMT;writing-mode:lr-tb;fill:#000000;fill-opacity:1;fill-rule:nonzero;stroke:none"
           id="text160"><tspan
             x="0"
             y="0"
             id="tspan158">5</tspan></text></g></g></g></svg>
