<?xml version="1.0" encoding="UTF-8" standalone="no"?>
<!-- Created with Inkscape (http://www.inkscape.org/) -->

<svg
   version="1.1"
   id="svg2"
   xml:space="preserve"
   width="269.33334"
   height="97.333336"
   viewBox="0 0 269.33334 97.333336"
   sodipodi:docname="optionbox1.pdf"
   xmlns:inkscape="http://www.inkscape.org/namespaces/inkscape"
   xmlns:sodipodi="http://sodipodi.sourceforge.net/DTD/sodipodi-0.dtd"
   xmlns="http://www.w3.org/2000/svg"
   xmlns:svg="http://www.w3.org/2000/svg"><defs
     id="defs6"><clipPath
       clipPathUnits="userSpaceOnUse"
       id="clipPath36"><path
         d="M 1890.93,442.691 H 378.66 V 339.434 h 1512.27 z"
         clip-rule="evenodd"
         id="path34" /></clipPath></defs><sodipodi:namedview
     id="namedview4"
     pagecolor="#ffffff"
     bordercolor="#666666"
     borderopacity="1.0"
     inkscape:pageshadow="2"
     inkscape:pageopacity="0.0"
     inkscape:pagecheckerboard="0" /><g
     id="g8"
     inkscape:groupmode="layer"
     inkscape:label="optionbox1"
     transform="matrix(1.3333333,0,0,-1.3333333,0,97.333333)"><g
       id="g10"
       transform="scale(0.1)"><path
         d="M 9.8125,545.945 V 663.953 H 2012.65 V 7.53906 H 9.8125 V 545.945 H 2012.65"
         style="fill:#fafafa;fill-opacity:1;fill-rule:nonzero;stroke:none"
         id="path12" /><g
         id="g14"
         transform="scale(1.0001,-0.999898)"><path
           d="m 9.8115,-546.001 v -118.02 H 2012.44 V -7.53983 H 9.8115 V -546.001 H 2012.44"
           style="fill:none;stroke:#666666;stroke-width:7.37617;stroke-linecap:butt;stroke-linejoin:miter;stroke-miterlimit:4;stroke-dasharray:none;stroke-opacity:1"
           id="path16" /></g><path
         d="M 13.5039,660.266 H 2008.96 V 549.633 H 13.5039 v 110.633"
         style="fill:#dedede;fill-opacity:1;fill-rule:nonzero;stroke:none"
         id="path18" /><g
         id="g20"
         transform="scale(1.0001,-0.999898)"><path
           d="m 1923.93,-634.514 59.01,59.006 m 0,-59.006 -59.01,59.006 m -99.58,-55.318 h 51.63 v 51.63 h -51.63 z m -103.26,51.63 h 51.63"
           style="fill:none;stroke:#666666;stroke-width:7.37617;stroke-linecap:butt;stroke-linejoin:miter;stroke-miterlimit:4;stroke-dasharray:none;stroke-opacity:1"
           id="path22" /></g><g
         id="g24"
         transform="scale(10)"><text
           transform="matrix(1,0,0,-0.99980004,4.66992,58.6512)"
           style="font-variant:normal;font-weight:bold;font-size:5.52842px;font-family:Arial;-inkscape-font-specification:Arial-BoldMT;writing-mode:lr-tb;fill:#000000;fill-opacity:1;fill-rule:nonzero;stroke:none"
           id="text28"><tspan
             x="0 4.6051702 7.67977 10.754371 13.82897 16.90357 20.280905 23.355503 24.891436 26.732397 28.26833 30.109291 31.645224"
             y="0"
             sodipodi:role="line"
             id="tspan26">Message title</tspan></text></g><g
         id="g30"><g
           id="g32"
           clip-path="url(#clipPath36)"><g
             id="g38"
             transform="scale(10)"><text
               transform="matrix(1,0,0,-0.99980004,37.866,39.1063)"
               style="font-variant:normal;font-weight:normal;font-size:5.52842px;font-family:ArialMT;-inkscape-font-specification:ArialMT;writing-mode:lr-tb;fill:#000000;fill-opacity:1;fill-rule:nonzero;stroke:none"
               id="text42"><tspan
                 x="0 3.3769433 6.4515419 9.5261402 11.062073 14.136671 17.211269 18.439779 21.203987 23.968195 25.504522 28.579121 30.420082 33.494682 37.486855 40.561455 42.097782 43.633717 46.708313 49.472523 51.008457 52.236576 55.311176 59.916344 62.990944 65.75515 67.291084 70.366081 73.130287 76.204895 78.04586 79.581795 81.117729 84.192329 87.266937 88.802872 90.031387 93.105995 95.870201 98.634407 100.17073 103.24534 106.31995 109.39455"
                 y="0"
                 sodipodi:role="line"
                 id="tspan40">The quick brown fox jumps over the lazy dog.</tspan></text></g></g></g><g
         id="g44"
         transform="scale(1.0001,-0.999898)"><path
           d="m 194.219,-443.889 c -51.526,0 -93.358,41.832 -93.358,93.357 0,51.521 41.832,93.357 93.358,93.357 51.522,0 93.353,-41.836 93.353,-93.357 0,-51.525 -41.831,-93.357 -93.353,-93.357 z"
           style="fill:none;stroke:#ffffff;stroke-width:29.9657;stroke-linecap:round;stroke-linejoin:round;stroke-miterlimit:4;stroke-dasharray:none;stroke-opacity:1"
           id="path46" /></g><g
         id="g48"
         transform="scale(1.0001,-0.999898)"><path
           d="m 194.219,-443.889 c -51.526,0 -93.358,41.832 -93.358,93.357 0,51.521 41.832,93.357 93.358,93.357 51.522,0 93.353,-41.836 93.353,-93.357 0,-51.525 -41.831,-93.357 -93.353,-93.357 z"
           style="fill:none;stroke:#666666;stroke-width:11.5253;stroke-linecap:butt;stroke-linejoin:miter;stroke-miterlimit:4;stroke-dasharray:none;stroke-opacity:1"
           id="path50" /></g><path
         d="m 181.574,367.523 c -2.386,0 -4.664,-0.16 -6.832,-0.488 v 2.442 c 7.59,2.168 15.992,5.148 25.211,8.941 l 0.649,-0.488 v -57.723 c 0,-5.855 0.652,-9.594 1.953,-11.223 1.41,-1.515 4.769,-2.492 10.082,-2.925 v -2.438 H 174.09 v 2.438 c 5.64,0.324 9.164,1.3 10.574,2.925 1.516,1.629 2.277,5.368 2.277,11.223 v 37.723 c 0,3.578 -0.433,6.07 -1.3,7.48 -0.762,1.41 -2.118,2.113 -4.067,2.113 z m 10.735,47.157 c 2.382,0 4.39,-0.813 6.015,-2.438 1.629,-1.625 2.442,-3.578 2.442,-5.855 0,-2.383 -0.813,-4.391 -2.442,-6.016 -1.625,-1.516 -3.633,-2.277 -6.015,-2.277 -2.278,0 -4.231,0.812 -5.856,2.441 -1.519,1.625 -2.277,3.578 -2.277,5.852 0,2.277 0.812,4.23 2.437,5.855 1.629,1.625 3.528,2.438 5.696,2.438"
         style="fill:#4d4d4d;fill-opacity:1;fill-rule:nonzero;stroke:none"
         id="path52" /><path
         d="m 1459.38,247.242 h 431.55 V 99.7344 H 1459.38 V 247.242"
         style="fill:#c8c8c8;fill-opacity:1;fill-rule:nonzero;stroke:none"
         id="path54" /><g
         id="g56"
         transform="scale(1.0001,-0.999898)"><path
           d="m 1459.23,-247.267 h 431.51 v 147.5225 h -431.51 z"
           style="fill:none;stroke:#666666;stroke-width:7.37617;stroke-linecap:butt;stroke-linejoin:round;stroke-miterlimit:4;stroke-dasharray:none;stroke-opacity:1"
           id="path58" /></g><g
         id="g60"
         transform="scale(10)"><text
           transform="matrix(1,0,0,-0.99980004,156.266,15.1359)"
           style="font-variant:normal;font-weight:bold;font-size:5.52842px;font-family:Arial;-inkscape-font-specification:Arial-BoldMT;writing-mode:lr-tb;fill:#000000;fill-opacity:1;fill-rule:nonzero;stroke:none"
           id="text64"><tspan
             x="0 3.9925659 7.3695121 9.210474 11.051436 14.428383 17.80533 19.341265"
             y="0"
             sodipodi:role="line"
             id="tspan62">Button n</tspan></text></g><path
         d="m 164.73,427.938 c 0,-15.274 -5.402,-28.313 -16.207,-39.114 -10.8,-10.801 -23.843,-16.199 -39.121,-16.199 -15.277,0 -28.32,5.398 -39.1207,16.199 -10.8047,10.801 -16.2071,23.84 -16.2071,39.114 0,15.277 5.4024,28.316 16.2071,39.117 10.8007,10.8 23.8437,16.199 39.1207,16.199 15.278,0 28.321,-5.399 39.121,-16.199 10.805,-10.801 16.207,-23.84 16.207,-39.117"
         style="fill:#ffffcc;fill-opacity:1;fill-rule:nonzero;stroke:none"
         id="path66" /><g
         id="g68"
         transform="scale(1.0001,-0.999898)"><path
           d="m 164.714,-427.981 c 0,15.275 -5.402,28.315 -16.206,39.117 -10.799,10.802 -23.841,16.201 -39.117,16.201 -15.2756,0 -28.3172,-5.399 -39.1169,-16.201 -10.8036,-10.802 -16.2054,-23.842 -16.2054,-39.117 0,-15.279 5.4018,-28.319 16.2054,-39.121 10.7997,-10.802 23.8413,-16.201 39.1169,-16.201 15.276,0 28.318,5.399 39.117,16.201 10.804,10.802 16.206,23.842 16.206,39.121 z"
           style="fill:none;stroke:#ffff66;stroke-width:7.37617;stroke-linecap:butt;stroke-linejoin:miter;stroke-miterlimit:4;stroke-dasharray:none;stroke-opacity:1"
           id="path70" /></g><g
         id="g72"
         transform="scale(10)"><text
           transform="matrix(1,0,0,-0.99980004,9.60898,41.3188)"
           style="font-variant:normal;font-weight:bold;font-size:4.79498px;font-family:Arial;-inkscape-font-specification:Arial-BoldMT;writing-mode:lr-tb;fill:#000000;fill-opacity:1;fill-rule:nonzero;stroke:none"
           id="text76"><tspan
             x="0"
             y="0"
             id="tspan74">2</tspan></text></g><path
         d="m 511.445,663.953 c 0,-15.277 -5.402,-28.312 -16.207,-39.113 -10.8,-10.801 -23.843,-16.203 -39.121,-16.203 -15.277,0 -28.316,5.402 -39.121,16.203 -10.805,10.801 -16.207,23.836 -16.207,39.113 0,15.274 5.402,28.313 16.207,39.113 10.805,10.801 23.844,16.204 39.121,16.204 15.278,0 28.321,-5.403 39.121,-16.204 10.805,-10.8 16.207,-23.839 16.207,-39.113"
         style="fill:#ffffcc;fill-opacity:1;fill-rule:nonzero;stroke:none"
         id="path78" /><g
         id="g80"
         transform="scale(1.0001,-0.999898)"><path
           d="m 511.393,-664.021 c 0,15.279 -5.402,28.316 -16.205,39.118 -10.8,10.801 -23.841,16.204 -39.117,16.204 -15.276,0 -28.314,-5.403 -39.117,-16.204 -10.804,-10.802 -16.206,-23.839 -16.206,-39.118 0,-15.275 5.402,-28.315 16.206,-39.117 10.803,-10.802 23.841,-16.205 39.117,-16.205 15.276,0 28.317,5.403 39.117,16.205 10.803,10.802 16.205,23.842 16.205,39.117 z"
           style="fill:none;stroke:#ffff66;stroke-width:7.37617;stroke-linecap:butt;stroke-linejoin:miter;stroke-miterlimit:4;stroke-dasharray:none;stroke-opacity:1"
           id="path82" /></g><g
         id="g84"
         transform="scale(10)"><text
           transform="matrix(1,0,0,-0.99980004,44.2805,64.9203)"
           style="font-variant:normal;font-weight:bold;font-size:4.79498px;font-family:Arial;-inkscape-font-specification:Arial-BoldMT;writing-mode:lr-tb;fill:#000000;fill-opacity:1;fill-rule:nonzero;stroke:none"
           id="text88"><tspan
             x="0"
             y="0"
             id="tspan86">3</tspan></text></g><path
         d="m 1629.05,413.188 c 0,-15.274 -5.4,-28.313 -16.21,-39.114 -10.8,-10.801 -23.84,-16.203 -39.12,-16.203 -15.27,0 -28.32,5.402 -39.12,16.203 -10.8,10.801 -16.21,23.84 -16.21,39.114 0,15.277 5.41,28.312 16.21,39.113 10.8,10.804 23.85,16.203 39.12,16.203 15.28,0 28.32,-5.399 39.12,-16.203 10.81,-10.801 16.21,-23.836 16.21,-39.113"
         style="fill:#ffffcc;fill-opacity:1;fill-rule:nonzero;stroke:none"
         id="path90" /><g
         id="g92"
         transform="scale(1.0001,-0.999898)"><path
           d="m 1628.88,-413.23 c 0,15.275 -5.4,28.316 -16.2,39.118 -10.8,10.802 -23.84,16.204 -39.12,16.204 -15.27,0 -28.31,-5.402 -39.12,-16.204 -10.8,-10.802 -16.2,-23.843 -16.2,-39.118 0,-15.278 5.4,-28.315 16.2,-39.117 10.81,-10.806 23.85,-16.205 39.12,-16.205 15.28,0 28.32,5.399 39.12,16.205 10.8,10.802 16.2,23.839 16.2,39.117 z"
           style="fill:none;stroke:#ffff66;stroke-width:7.37617;stroke-linecap:butt;stroke-linejoin:miter;stroke-miterlimit:4;stroke-dasharray:none;stroke-opacity:1"
           id="path94" /></g><g
         id="g96"
         transform="scale(10)"><text
           transform="matrix(1,0,0,-0.99980004,156.041,39.8438)"
           style="font-variant:normal;font-weight:bold;font-size:4.79498px;font-family:Arial;-inkscape-font-specification:Arial-BoldMT;writing-mode:lr-tb;fill:#000000;fill-opacity:1;fill-rule:nonzero;stroke:none"
           id="text100"><tspan
             x="0"
             y="0"
             id="tspan98">4</tspan></text></g><path
         d="M 817.586,247.242 H 1249.14 V 99.7344 H 817.586 V 247.242"
         style="fill:#fafafa;fill-opacity:1;fill-rule:nonzero;stroke:none"
         id="path102" /><g
         id="g104"
         transform="scale(1.0001,-0.999898)"><path
           d="M 817.503,-247.267 H 1249.01 V -99.7445 H 817.503 Z"
           style="fill:none;stroke:#666666;stroke-width:7.37617;stroke-linecap:butt;stroke-linejoin:round;stroke-miterlimit:4;stroke-dasharray:none;stroke-opacity:1"
           id="path106" /></g><g
         id="g108"
         transform="scale(10)"><text
           transform="matrix(1,0,0,-0.99980004,92.0863,15.5047)"
           style="font-variant:normal;font-weight:normal;font-size:1e-32px;font-family:Arial;-inkscape-font-specification:Arial;writing-mode:lr-tb;fill:#000000;fill-opacity:1;fill-rule:nonzero;stroke:none"
           id="text112"><tspan
             x="0 3.178839 6.6064563 8.6740837 10.741712 14.136158 17.563776 19.310755"
             y="0"
             sodipodi:role="line"
             id="tspan110">Button 1</tspan></text></g><path
         d="m 1459.38,247.242 h 431.55 V 99.7344 H 1459.38 V 247.242"
         style="fill:#fafafa;fill-opacity:1;fill-rule:nonzero;stroke:none"
         id="path114" /><g
         id="g116"
         transform="scale(1.0001,-0.999898)"><path
           d="m 1459.23,-247.267 h 431.51 v 147.5225 h -431.51 z"
           style="fill:none;stroke:#666666;stroke-width:7.37617;stroke-linecap:butt;stroke-linejoin:round;stroke-miterlimit:4;stroke-dasharray:none;stroke-opacity:1"
           id="path118" /></g><g
         id="g120"
         transform="scale(10)"><text
           transform="matrix(1,0,0,-0.99980004,156.266,15.5047)"
           style="font-variant:normal;font-weight:normal;font-size:1e-32px;font-family:Arial;-inkscape-font-specification:Arial;writing-mode:lr-tb;fill:#000000;fill-opacity:1;fill-rule:nonzero;stroke:none"
           id="text124"><tspan
             x="0 3.178839 6.6064563 8.6740837 10.741712 14.136158 17.563776 19.310755"
             y="0"
             sodipodi:role="line"
             id="tspan122">Button n</tspan></text><text
           transform="matrix(1,0,0,-0.99980004,133.7665,15.317591)"
           style="font-variant:normal;font-weight:normal;font-size:5.52842px;font-family:ArialMT;-inkscape-font-specification:ArialMT;writing-mode:lr-tb;fill:#000000;fill-opacity:1;fill-rule:nonzero;stroke:none"
           id="text128"><tspan
             x="0 1.5359352 3.0718703"
             y="0"
             sodipodi:role="line"
             id="tspan126">...</tspan></text></g><path
         d="m 817.586,273.055 h 11.066 v -7.375 h -11.066 z m 22.133,0 h 11.062 v -7.375 h -11.062 z m 22.129,0 h 11.066 v -7.375 h -11.066 z m 22.132,0 h 11.063 V 265.68 H 883.98 Z m 22.129,0 h 11.067 v -7.375 h -11.067 z m 22.133,0 h 11.063 v -7.375 h -11.063 z m 22.129,0 h 11.067 v -7.375 h -11.067 z m 22.133,0 h 11.062 v -7.375 h -11.062 z m 22.129,0 h 11.067 v -7.375 h -11.067 z m 22.137,0 h 11.06 v -7.375 h -11.06 z m 22.12,0 h 11.07 v -7.375 h -11.07 z m 22.13,0 h 11.07 v -7.375 h -11.07 z m 22.14,0 h 11.06 v -7.375 h -11.06 z m 22.13,0 h 11.06 v -7.375 h -11.06 z m 22.13,0 h 11.06 v -7.375 h -11.06 z m 22.13,0 h 11.06 v -7.375 h -11.06 z m 22.13,0 h 11.07 v -7.375 h -11.07 z m 22.13,0 h 11.07 v -7.375 h -11.07 z m 22.13,0 h 11.07 v -7.375 h -11.07 z m 22.13,0 h 11.07 v -7.375 h -11.07 z m 22.13,0 h 11.07 v -7.375 h -11.07 z m 22.13,0 h 11.07 v -7.375 h -11.07 z m 22.13,0 h 11.07 v -7.375 h -11.07 z m 22.13,0 h 11.07 v -7.375 h -11.07 z m 22.14,0 h 11.06 v -7.375 h -11.06 z m 22.13,0 h 11.06 v -7.375 h -11.06 z m 22.13,0 h 11.06 v -7.375 h -11.06 z m 22.13,0 h 11.06 v -7.375 h -11.06 z m 22.13,0 h 11.06 v -7.375 h -11.06 z m 22.13,0 h 11.07 v -7.375 h -11.07 z m 22.13,0 h 11.06 v -7.375 h -11.06 z m 22.13,0 h 11.07 v -7.375 h -11.07 z m 22.13,0 h 11.07 v -7.375 h -11.07 z m 22.13,0 h 11.07 v -7.375 h -11.07 z m 22.13,0 h 11.07 v -7.375 h -11.07 z m 22.13,0 h 11.07 v -7.375 h -11.07 z m 22.13,0 h 11.07 v -7.375 h -11.07 z m 22.14,0 h 11.06 v -7.375 h -11.06 z m 22.12,0 h 11.07 v -7.375 h -11.07 z m 22.14,0 h 11.06 v -7.375 h -11.06 z m 22.13,0 h 11.06 v -7.375 h -11.06 z m 22.13,0 h 11.07 v -7.375 h -11.07 z m 22.13,0 h 11.06 v -7.375 h -11.06 z m 22.13,0 h 11.06 v -7.375 h -11.06 z m 22.13,0 h 11.07 v -7.375 h -11.07 z m 22.13,0 h 11.07 v -7.375 h -11.07 z m 22.13,0 h 11.07 v -7.375 h -11.07 z m 22.13,0 h 11.07 v -7.375 h -11.07 z m 22.13,0 h 11.07 v -7.375 h -11.07 z m 22.14,0 h 11.06 V 265.68 H 1902 Z m 14.75,-14.75 v -11.063 h -7.38 v 11.063 z m 0,-22.125 v -11.067 h -7.38 v 11.067 z m 0,-22.129 v -11.063 h -7.38 v 11.063 z m 0,-22.125 v -11.063 h -7.38 v 11.063 z m 0,-22.125 v -11.067 h -7.38 v 11.067 z m 0,-22.129 v -11.063 h -7.38 v 11.063 z m 0,-22.125 v -11.063 h -7.38 v 11.063 z m 0,-22.125 V 92.3555 h -7.38 v 11.0665 z m 0,-22.129 v -7.375 h -11.07 v 7.375 h 7.38 v -3.6875 h -3.69 v 3.6875 z m -22.13,-7.375 h -11.07 v 7.375 h 11.07 z m -22.13,0 h -11.07 v 7.375 h 11.07 z m -22.13,0 h -11.07 v 7.375 h 11.07 z m -22.13,0 h -11.07 v 7.375 h 11.07 z m -22.14,0 h -11.06 v 7.375 h 11.06 z m -22.13,0 h -11.06 v 7.375 h 11.06 z m -22.13,0 h -11.06 v 7.375 h 11.06 z m -22.13,0 h -11.06 v 7.375 h 11.06 z m -22.13,0 h -11.06 v 7.375 h 11.06 z m -22.13,0 h -11.06 v 7.375 h 11.06 z m -22.13,0 h -11.06 v 7.375 h 11.06 z m -22.13,0 h -11.07 v 7.375 h 11.07 z m -22.13,0 h -11.07 v 7.375 h 11.07 z m -22.13,0 h -11.07 v 7.375 h 11.07 z m -22.13,0 h -11.07 v 7.375 h 11.07 z m -22.13,0 h -11.07 v 7.375 h 11.07 z m -22.14,0 h -11.06 v 7.375 h 11.06 z m -22.13,0 h -11.06 v 7.375 h 11.06 z m -22.12,0 h -11.07 v 7.375 h 11.07 z m -22.14,0 h -11.06 v 7.375 h 11.06 z m -22.13,0 h -11.06 v 7.375 H 1452 Z m -22.13,0 h -11.07 v 7.375 h 11.07 z m -22.13,0 h -11.06 v 7.375 h 11.06 z m -22.13,0 h -11.07 v 7.375 h 11.07 z m -22.13,0 h -11.07 v 7.375 h 11.07 z m -22.13,0 h -11.07 v 7.375 h 11.07 z m -22.13,0 h -11.07 v 7.375 h 11.07 z m -22.13,0 h -11.07 v 7.375 h 11.07 z m -22.13,0 h -11.07 v 7.375 h 11.07 z m -22.14,0 h -11.06 v 7.375 h 11.06 z m -22.12,0 h -11.07 v 7.375 h 11.07 z m -22.14,0 h -11.06 v 7.375 h 11.06 z m -22.13,0 h -11.06 v 7.375 h 11.06 z m -22.13,0 h -11.06 v 7.375 h 11.06 z m -22.13,0 h -11.06 v 7.375 h 11.06 z m -22.13,0 h -11.06 v 7.375 h 11.06 z m -22.13,0 h -11.07 v 7.375 h 11.07 z m -22.13,0 h -11.07 v 7.375 h 11.07 z m -22.13,0 h -11.07 v 7.375 h 11.07 z m -22.13,0 h -11.07 v 7.375 h 11.07 z m -22.13,0 h -11.07 v 7.375 h 11.07 z m -22.132,0 h -11.067 v 7.375 h 11.067 z m -22.133,0 h -11.066 v 7.375 h 11.066 z m -22.129,0 H 931.93 v 7.375 h 11.066 z m -22.133,0 h -11.066 v 7.375 h 11.066 z m -22.129,0 h -11.066 v 7.375 h 11.066 z m -22.132,0 h -11.067 v 7.375 h 11.067 z m -22.129,0 h -11.067 v 7.375 h 11.067 z m -22.133,0 h -11.067 v 7.375 h 11.067 z m -22.129,0 h -11.066 v 7.375 h 11.066 z m -18.445,11.0625 v 11.0664 h 7.379 V 84.9805 Z m 0,22.1285 v 11.063 h 7.379 v -11.063 z m 0,22.125 v 11.063 h 7.379 v -11.063 z m 0,22.125 v 11.067 h 7.379 v -11.067 z m 0,22.129 v 11.063 h 7.379 v -11.063 z m 0,22.125 v 11.063 h 7.379 v -11.063 z m 0,22.125 v 11.063 h 7.379 v -11.063 z m 0,22.129 v 11.063 h 7.379 v -11.063 z m 0,22.125 v 11.063 h 14.754 v -7.375 h -11.063 v 3.687 h 3.688 v -7.375 h -7.379"
         style="fill:#c0c0c0;fill-opacity:1;fill-rule:nonzero;stroke:none"
         id="path130" /><path
         d="m 1957.32,92.3555 c 0,-15.2735 -5.4,-28.3125 -16.2,-39.1133 C 1930.31,42.4414 1917.27,37.043 1902,37.043 c -15.29,0 -28.32,5.3984 -39.13,16.1992 -10.8,10.8008 -16.2,23.8398 -16.2,39.1133 0,15.2775 5.4,28.3165 16.2,39.1175 10.81,10.8 23.84,16.199 39.13,16.199 15.27,0 28.31,-5.399 39.12,-16.199 10.8,-10.801 16.2,-23.84 16.2,-39.1175"
         style="fill:#ffffcc;fill-opacity:1;fill-rule:nonzero;stroke:none"
         id="path132" /><g
         id="g134"
         transform="scale(1.0001,-0.999898)"><path
           d="m 1957.12,-92.3649 c 0,15.275 -5.4,28.3154 -16.2,39.1173 -10.8,10.8019 -23.84,16.2009 -39.12,16.2009 -15.28,0 -28.31,-5.399 -39.12,-16.2009 -10.8,-10.8019 -16.2,-23.8423 -16.2,-39.1173 0,-15.2791 5.4,-28.3191 16.2,-39.1211 10.81,-10.802 23.84,-16.201 39.12,-16.201 15.28,0 28.32,5.399 39.12,16.201 10.8,10.802 16.2,23.842 16.2,39.1211 z"
           style="fill:none;stroke:#ffff66;stroke-width:7.37617;stroke-linecap:butt;stroke-linejoin:miter;stroke-miterlimit:4;stroke-dasharray:none;stroke-opacity:1"
           id="path136" /></g><g
         id="g138"
         transform="scale(10)"><text
           transform="matrix(1,0,0,-0.99980004,188.868,7.76055)"
           style="font-variant:normal;font-weight:bold;font-size:4.79498px;font-family:Arial;-inkscape-font-specification:Arial-BoldMT;writing-mode:lr-tb;fill:#000000;fill-opacity:1;fill-rule:nonzero;stroke:none"
           id="text142"><tspan
             x="0"
             y="0"
             id="tspan140">5</tspan></text></g><path
         d="m 400.789,317.309 h 11.066 v -7.375 h -11.066 m 22.133,7.375 h 11.066 v -7.375 h -11.066 m 22.129,7.375 h 11.066 v -7.375 h -11.066 m 22.133,7.375 h 11.066 v -7.375 h -11.066 m 22.129,7.375 h 11.066 v -7.375 h -11.066 m 22.132,7.375 h 11.067 v -7.375 h -11.067 m 22.129,7.375 h 11.067 v -7.375 h -11.067 m 22.133,7.375 h 11.066 v -7.375 h -11.066 m 22.129,7.375 h 11.066 v -7.375 h -11.066 m 22.133,7.375 h 11.062 v -7.375 h -11.062 m 22.129,7.375 h 11.066 v -7.375 h -11.066 m 22.132,7.375 h 11.063 v -7.375 H 644.23 m 22.129,7.375 h 11.067 v -7.375 h -11.067 m 22.133,7.375 h 11.063 v -7.375 h -11.063 m 22.129,7.375 h 11.067 v -7.375 h -11.067 m 22.133,7.375 h 11.062 v -7.375 h -11.062 m 22.129,7.375 h 11.066 v -7.375 h -11.066 m 22.133,7.375 h 11.062 v -7.375 h -11.062 m 22.129,7.375 h 11.066 v -7.375 h -11.066 m 22.132,7.375 h 11.063 v -7.375 h -11.063 m 22.129,7.375 h 11.067 v -7.375 h -11.067 m 22.129,7.375 h 11.067 v -7.375 h -11.067 m 22.133,7.375 h 11.066 v -7.375 h -11.066 m 22.129,7.375 h 11.066 v -7.375 h -11.066 m 22.133,7.375 h 11.066 v -7.375 H 931.93 m 22.129,7.375 h 11.066 v -7.375 h -11.066 m 22.132,7.375 h 11.067 v -7.375 h -11.067 m 22.129,7.375 h 11.07 v -7.375 h -11.07 m 22.13,7.375 h 11.07 v -7.375 h -11.07 m 22.13,7.375 h 11.07 v -7.375 h -11.07 m 22.13,7.375 h 11.07 v -7.375 h -11.07 m 22.13,7.375 h 11.07 v -7.375 h -11.07 m 22.14,7.375 h 11.06 v -7.375 h -11.06 m 22.13,7.375 h 11.06 v -7.375 h -11.06 m 22.13,7.375 h 11.06 v -7.375 h -11.06 m 22.13,7.375 h 11.06 v -7.375 h -11.06 m 22.13,7.375 h 11.06 v -7.375 h -11.06 m 22.13,7.375 h 11.07 v -7.375 h -11.07 m 22.13,7.375 h 11.06 v -7.375 h -11.06 m 22.13,7.375 h 11.07 v -7.375 h -11.07 m 22.13,7.375 h 11.07 v -7.375 h -11.07 m 22.13,7.375 h 11.07 v -7.375 h -11.07 m 22.13,7.375 h 11.07 v -7.375 h -11.07 m 22.13,7.375 h 11.07 v -7.375 h -11.07 m 22.13,7.375 h 11.07 v -7.375 h -11.07 m 22.14,7.375 h 11.06 v -7.375 h -11.06 m 22.12,7.375 h 11.07 v -7.375 h -11.07 m 22.14,7.375 H 1452 v -7.375 h -11.06 m 22.13,7.375 h 11.06 v -7.375 h -11.06 m 22.13,7.375 h 11.07 v -7.375 h -11.07 m 22.13,7.375 h 11.06 v -7.375 h -11.06 m 22.13,7.375 h 11.07 v -7.375 h -11.07 m 22.13,7.375 h 11.07 v -7.375 h -11.07 m 22.13,7.375 h 11.07 v -7.375 h -11.07 m 22.13,7.375 h 11.07 v -7.375 h -11.07 m 22.13,7.375 h 11.07 v -7.375 h -11.07 m 22.13,7.375 h 11.07 v -7.375 h -11.07 m 22.14,7.375 h 11.06 v -7.375 h -11.06 m 22.13,7.375 h 11.06 v -7.375 h -11.06 m 22.13,7.375 h 11.06 v -7.375 h -11.06 m 22.13,7.375 h 11.06 v -7.375 h -11.06 m 22.13,7.375 h 11.06 v -7.375 h -11.06 m 22.13,7.375 h 11.06 v -7.375 h -11.06 m 22.13,7.375 h 11.06 v -7.375 h -11.06 m 22.13,7.375 h 11.07 v -7.375 h -11.07 m 22.13,7.375 h 11.07 v -7.375 h -11.07 m 22.13,7.375 h 11.07 v -7.375 h -11.07"
         style="fill:#c0c0c0;fill-opacity:1;fill-rule:nonzero;stroke:none"
         id="path144" /><path
         d="m 389.727,343.121 v -11.062 h -7.379 v 11.062 m 7.379,-22.125 v -11.062 h -7.379 v 11.062 m 7.379,-22.125 v -11.066 h -7.379 v 11.066"
         style="fill:#c0c0c0;fill-opacity:1;fill-rule:nonzero;stroke:none"
         id="path146" /><path
         d="m 1890.93,343.121 v -11.062 h -7.38 v 11.062 m 7.38,-22.125 v -11.062 h -7.38 v 11.062 m 7.38,-22.125 v -11.066 h -7.38 v 11.066"
         style="fill:#c0c0c0;fill-opacity:1;fill-rule:nonzero;stroke:none"
         id="path148" /><path
         d="m 529.887,276.742 c 0,-15.273 -5.403,-28.312 -16.203,-39.113 -10.805,-10.801 -23.844,-16.203 -39.125,-16.203 -15.278,0 -28.317,5.402 -39.121,16.203 -10.805,10.801 -16.204,23.84 -16.204,39.113 0,15.278 5.399,28.313 16.204,39.113 10.804,10.805 23.843,16.204 39.121,16.204 15.281,0 28.32,-5.399 39.125,-16.204 10.8,-10.8 16.203,-23.835 16.203,-39.113"
         style="fill:#ffffcc;fill-opacity:1;fill-rule:nonzero;stroke:none"
         id="path150" /><g
         id="g152"
         transform="scale(1.0001,-0.999898)"><path
           d="m 529.833,-276.77 c 0,15.275 -5.402,28.315 -16.202,39.117 -10.803,10.802 -23.841,16.205 -39.121,16.205 -15.276,0 -28.313,-5.403 -39.117,-16.205 -10.803,-10.802 -16.201,-23.842 -16.201,-39.117 0,-15.279 5.398,-28.316 16.201,-39.118 10.804,-10.805 23.841,-16.204 39.117,-16.204 15.28,0 28.318,5.399 39.121,16.204 10.8,10.802 16.202,23.839 16.202,39.118 z"
           style="fill:none;stroke:#ffff66;stroke-width:7.37617;stroke-linecap:butt;stroke-linejoin:miter;stroke-miterlimit:4;stroke-dasharray:none;stroke-opacity:1"
           id="path154" /></g><g
         id="g156"
         transform="scale(10)"><text
           transform="matrix(1,0,0,-0.99980004,46.1246,26.1992)"
           style="font-variant:normal;font-weight:bold;font-size:4.79498px;font-family:Arial;-inkscape-font-specification:Arial-BoldMT;writing-mode:lr-tb;fill:#000000;fill-opacity:1;fill-rule:nonzero;stroke:none"
           id="text160"><tspan
             x="0"
             y="0"
             id="tspan158">1</tspan></text></g></g></g></svg>
