<?xml version="1.0" encoding="UTF-8" standalone="no"?>
<!-- Created with Inkscape (http://www.inkscape.org/) -->

<svg
   width="108.4183mm"
   height="50.172901mm"
   viewBox="0 0 108.4183 50.172901"
   version="1.1"
   id="svg5"
   inkscape:version="1.1.2 (0a00cf5339, 2022-02-04)"
   sodipodi:docname="structure1.svg"
   xmlns:inkscape="http://www.inkscape.org/namespaces/inkscape"
   xmlns:sodipodi="http://sodipodi.sourceforge.net/DTD/sodipodi-0.dtd"
   xmlns="http://www.w3.org/2000/svg"
   xmlns:svg="http://www.w3.org/2000/svg">
  <sodipodi:namedview
     id="namedview7"
     pagecolor="#ffffff"
     bordercolor="#666666"
     borderopacity="1.0"
     inkscape:pageshadow="2"
     inkscape:pageopacity="0.0"
     inkscape:pagecheckerboard="0"
     inkscape:document-units="mm"
     showgrid="false"
     fit-margin-top="2"
     fit-margin-left="2"
     fit-margin-right="2"
     fit-margin-bottom="2"
     inkscape:zoom="0.69130191"
     inkscape:cx="229.27754"
     inkscape:cy="37.610196"
     inkscape:window-width="1920"
     inkscape:window-height="1011"
     inkscape:window-x="0"
     inkscape:window-y="0"
     inkscape:window-maximized="1"
     inkscape:current-layer="layer1" />
  <defs
     id="defs2">
    <clipPath
       clipPathUnits="userSpaceOnUse"
       id="clipPath27">
      <path
         d="M 0,0 H 207.562 V 207.69022 H 0 Z"
         id="path25" />
    </clipPath>
    <linearGradient
       x1="487.40201"
       y1="336.72299"
       x2="507.965"
       y2="377.54001"
       gradientUnits="userSpaceOnUse"
       gradientTransform="matrix(0.75,0,0,0.75,-271.92635,-104.0625)"
       spreadMethod="pad"
       id="linearGradient37">
      <stop
         style="stop-opacity:1;stop-color:#1292ed"
         offset="0"
         id="stop33" />
      <stop
         style="stop-opacity:1;stop-color:#11c8ed"
         offset="1"
         id="stop35" />
    </linearGradient>
    <linearGradient
       x1="546.67499"
       y1="293.54001"
       x2="584.776"
       y2="298.86401"
       gradientUnits="userSpaceOnUse"
       gradientTransform="matrix(0.75,0,0,0.75,-271.92635,-104.0625)"
       spreadMethod="pad"
       id="linearGradient47">
      <stop
         style="stop-opacity:1;stop-color:#f9ec22"
         offset="0"
         id="stop43" />
      <stop
         style="stop-opacity:1;stop-color:#ffb812"
         offset="1"
         id="stop45" />
    </linearGradient>
    <linearGradient
       x1="524.05603"
       y1="205.192"
       x2="535.42499"
       y2="247.38699"
       gradientUnits="userSpaceOnUse"
       gradientTransform="matrix(0.75,0,0,0.75,-271.92635,-104.0625)"
       spreadMethod="pad"
       id="linearGradient57">
      <stop
         style="stop-opacity:1;stop-color:#00b847"
         offset="0"
         id="stop53" />
      <stop
         style="stop-opacity:1;stop-color:#1292ed"
         offset="1"
         id="stop55" />
    </linearGradient>
  </defs>
  <g
     inkscape:label="Camada 1"
     inkscape:groupmode="layer"
     id="layer1"
     transform="translate(-44.322729,-138.64899)">
    <g
       id="g267"
       transform="matrix(0.35277777,0,0,-0.35277777,44.846707,157.35789)">
      <g
         id="g269">
        <g
           id="g271">
          <g
             id="g273">
            <g
               id="g275">
              <g
                 id="g277"
                 transform="translate(4.184)">
                <g
                   id="g279">
                  <g
                     id="g281"
                     transform="translate(0,-3.118)">
                    <g
                       id="g283">
                      <g
                         id="g285">
                        <path
                           d="M 0,3.9851 V 9.629 c 0,2.20094 1.78416,3.9851 3.9851,3.9851 h 57.78407 c 2.20093,0 3.9851,-1.78416 3.9851,-3.9851 V 3.9851 C 65.75427,1.78416 63.9701,0 61.76917,0 H 3.9851 C 1.78416,0 0,1.78416 0,3.9851 Z"
                           style="fill:#00b847;fill-opacity:1;fill-rule:nonzero;stroke:none"
                           id="path287" />
                      </g>
                      <g
                         id="g289">
                        <path
                           d="M 0.99628,3.9851 V 9.629 c 0,1.65071 1.33812,2.98883 2.98882,2.98883 h 57.78407 c 1.65069,0 2.98883,-1.33812 2.98883,-2.98883 V 3.9851 c 0,-1.6507 -1.33814,-2.98882 -2.98883,-2.98882 H 3.9851 c -1.6507,0 -2.98882,1.33812 -2.98882,2.98882 z"
                           style="fill:#e6f8ed;fill-opacity:1;fill-rule:nonzero;stroke:none"
                           id="path291" />
                      </g>
                      <g
                         id="g293">
                        <g
                           id="g295"
                           transform="translate(2.989,3.856)">
                          <g
                             id="g297">
                            <g
                               id="g299"
                               transform="translate(-152.633,-306.018)">
                              <text
                                 transform="matrix(1,0,0,-1,152.633,306.018)"
                                 style="font-variant:normal;font-weight:normal;font-size:9.9626px;font-family:'Source Code Pro';-inkscape-font-specification:SourceCodePro-Regular;writing-mode:lr-tb;fill:#00b847;fill-opacity:1;fill-rule:nonzero;stroke:none"
                                 id="text303"><tspan
                                   x="0 5.97756 11.95512 17.93268 23.91024 29.8878 35.86536 41.842918 47.82048 53.798038"
                                   y="0"
                                   sodipodi:role="line"
                                   id="tspan301">ARARA_HOME</tspan></text>
                              <g
                                 id="g305"
                                 transform="translate(152.633,306.018)" />
                            </g>
                          </g>
                          <g
                             id="g307"
                             transform="translate(-2.989,-3.856)" />
                        </g>
                      </g>
                    </g>
                    <g
                       id="g309"
                       transform="translate(0,3.118)" />
                  </g>
                </g>
                <g
                   id="g311"
                   transform="translate(-4.184)" />
              </g>
            </g>
          </g>
        </g>
        <g
           id="g313"
           transform="translate(88.218,36.788)">
          <g
             id="g315">
            <g
               id="g317">
              <g
                 id="g319"
                 transform="translate(4.184)">
                <g
                   id="g321">
                  <g
                     id="g323"
                     transform="translate(0,-3.118)">
                    <g
                       id="g325">
                      <g
                         id="g327">
                        <path
                           d="m 0,3.9851 v 5.72361 c 0,2.20094 1.78416,3.98511 3.9851,3.98511 h 51.8064 c 2.20093,0 3.98511,-1.78417 3.98511,-3.98511 V 3.9851 C 59.77661,1.78416 57.99243,0 55.7915,0 H 3.9851 C 1.78416,0 0,1.78416 0,3.9851 Z"
                           style="fill:#00b847;fill-opacity:1;fill-rule:nonzero;stroke:none"
                           id="path329" />
                      </g>
                      <g
                         id="g331">
                        <path
                           d="m 0.99628,3.9851 v 5.72361 c 0,1.65069 1.33812,2.98883 2.98882,2.98883 h 51.8064 c 1.6507,0 2.98883,-1.33814 2.98883,-2.98883 V 3.9851 c 0,-1.6507 -1.33813,-2.98882 -2.98883,-2.98882 H 3.9851 c -1.6507,0 -2.98882,1.33812 -2.98882,2.98882 z"
                           style="fill:#00b847;fill-opacity:1;fill-rule:nonzero;stroke:none"
                           id="path333" />
                      </g>
                      <g
                         id="g335">
                        <g
                           id="g337"
                           transform="translate(2.989,3.935)">
                          <g
                             id="g339">
                            <g
                               id="g341"
                               transform="translate(-240.851,-342.885)">
                              <text
                                 transform="matrix(1,0,0,-1,240.851,342.885)"
                                 style="font-variant:normal;font-weight:normal;font-size:9.9626px;font-family:'Source Code Pro';-inkscape-font-specification:SourceCodePro-Regular;writing-mode:lr-tb;fill:#e6f8ed;fill-opacity:1;fill-rule:nonzero;stroke:none"
                                 id="text345"><tspan
                                   x="0 5.97756 11.95512 17.93268 23.91024 29.8878 35.86536 41.842918 47.82048"
                                   y="0"
                                   sodipodi:role="line"
                                   id="tspan343">arara.jar</tspan></text>
                              <g
                                 id="g347"
                                 transform="translate(240.851,342.885)" />
                            </g>
                          </g>
                          <g
                             id="g349"
                             transform="translate(-2.989,-3.935)" />
                        </g>
                      </g>
                    </g>
                    <g
                       id="g351"
                       transform="translate(0,3.118)" />
                  </g>
                </g>
                <g
                   id="g353"
                   transform="translate(-4.184)" />
              </g>
            </g>
          </g>
          <g
             id="g355"
             transform="translate(-88.218,-36.788)" />
        </g>
        <g
           id="g357"
           transform="translate(88.218,-36.787)">
          <g
             id="g359">
            <g
               id="g361">
              <g
                 id="g363"
                 transform="translate(4.184)">
                <g
                   id="g365">
                  <g
                     id="g367"
                     transform="translate(0,-3.118)">
                    <g
                       id="g369">
                      <g
                         id="g371">
                        <path
                           d="M 0,3.9851 V 9.629 c 0,2.20094 1.78416,3.9851 3.9851,3.9851 h 33.87342 c 2.20093,0 3.98511,-1.78416 3.98511,-3.9851 V 3.9851 C 41.84363,1.78416 40.05945,0 37.85852,0 H 3.9851 C 1.78416,0 0,1.78416 0,3.9851 Z"
                           style="fill:#00b847;fill-opacity:1;fill-rule:nonzero;stroke:none"
                           id="path373" />
                      </g>
                      <g
                         id="g375">
                        <path
                           d="M 0.99628,3.9851 V 9.629 c 0,1.65071 1.33812,2.98883 2.98882,2.98883 h 33.87342 c 1.6507,0 2.98883,-1.33812 2.98883,-2.98883 V 3.9851 c 0,-1.6507 -1.33813,-2.98882 -2.98883,-2.98882 H 3.9851 c -1.6507,0 -2.98882,1.33812 -2.98882,2.98882 z"
                           style="fill:#e6f8ed;fill-opacity:1;fill-rule:nonzero;stroke:none"
                           id="path377" />
                      </g>
                      <g
                         id="g379">
                        <g
                           id="g381"
                           transform="translate(2.989,3.855)">
                          <g
                             id="g383">
                            <g
                               id="g385"
                               transform="translate(-240.851,-269.23)">
                              <text
                                 transform="matrix(1,0,0,-1,240.851,269.23)"
                                 style="font-variant:normal;font-weight:normal;font-size:9.9626px;font-family:'Source Code Pro';-inkscape-font-specification:SourceCodePro-Regular;writing-mode:lr-tb;fill:#00b847;fill-opacity:1;fill-rule:nonzero;stroke:none"
                                 id="text389"><tspan
                                   x="0 5.97756 11.95512 17.93268 23.91024 29.8878"
                                   y="0"
                                   sodipodi:role="line"
                                   id="tspan387">rules/</tspan></text>
                              <g
                                 id="g391"
                                 transform="translate(240.851,269.23)" />
                            </g>
                          </g>
                          <g
                             id="g393"
                             transform="translate(-2.989,-3.855)" />
                        </g>
                      </g>
                    </g>
                    <g
                       id="g395"
                       transform="translate(0,3.118)" />
                  </g>
                </g>
                <g
                   id="g397"
                   transform="translate(-4.184)" />
              </g>
            </g>
          </g>
          <g
             id="g399"
             transform="translate(-88.218,36.787)" />
        </g>
        <g
           id="g401"
           transform="translate(152.526,6.828)">
          <g
             id="g403">
            <g
               id="g405">
              <g
                 id="g407"
                 transform="translate(4.183)">
                <g
                   id="g409">
                  <g
                     id="g411"
                     transform="translate(0,-3.118)">
                    <g
                       id="g413">
                      <g
                         id="g415">
                        <path
                           d="M 0,3.9851 V 9.629 c 0,2.20094 1.78416,3.9851 3.9851,3.9851 h 135.49366 c 2.20093,0 3.98511,-1.78416 3.98511,-3.9851 V 3.9851 C 143.46387,1.78416 141.67969,0 139.47876,0 H 3.9851 C 1.78416,0 0,1.78416 0,3.9851 Z"
                           style="fill:#00b847;fill-opacity:1;fill-rule:nonzero;stroke:none"
                           id="path417" />
                      </g>
                      <g
                         id="g419">
                        <path
                           d="M 0.99628,3.9851 V 9.629 c 0,1.65071 1.33812,2.98883 2.98882,2.98883 h 135.49366 c 1.6507,0 2.98883,-1.33812 2.98883,-2.98883 V 3.9851 c 0,-1.6507 -1.33813,-2.98882 -2.98883,-2.98882 H 3.9851 c -1.6507,0 -2.98882,1.33812 -2.98882,2.98882 z"
                           style="fill:#00b847;fill-opacity:1;fill-rule:nonzero;stroke:none"
                           id="path421" />
                      </g>
                      <g
                         id="g423">
                        <g
                           id="g425"
                           transform="translate(2.989,3.856)">
                          <g
                             id="g427">
                            <g
                               id="g429"
                               transform="translate(-305.158,-312.846)">
                              <text
                                 transform="matrix(1,0,0,-1,305.158,312.846)"
                                 style="font-variant:normal;font-weight:normal;font-size:9.9626px;font-family:'Source Code Pro';-inkscape-font-specification:SourceCodePro-Regular;writing-mode:lr-tb;fill:#e6f8ed;fill-opacity:1;fill-rule:nonzero;stroke:none"
                                 id="text433"><tspan
                                   x="0 5.97756 11.95512 17.93268 23.91024 29.8878 35.86536 41.842918 47.82048 53.798038 59.7756 65.753159 71.730721 77.708282 83.685837 89.663399 95.640961 101.61852 107.59608 113.57364 119.5512 125.52876 131.50632"
                                   y="0"
                                   sodipodi:role="line"
                                   id="tspan431">arara-rule-animate.yaml</tspan></text>
                              <g
                                 id="g435"
                                 transform="translate(305.158,312.846)" />
                            </g>
                          </g>
                          <g
                             id="g437"
                             transform="translate(-2.989,-3.856)" />
                        </g>
                      </g>
                    </g>
                    <g
                       id="g439"
                       transform="translate(0,3.118)" />
                  </g>
                </g>
                <g
                   id="g441"
                   transform="translate(-4.183)" />
              </g>
            </g>
          </g>
          <g
             id="g443"
             transform="translate(-152.526,-6.828)" />
        </g>
        <g
           id="g445"
           transform="translate(152.526,-18.167)">
          <g
             id="g447">
            <g
               id="g449">
              <g
                 id="g451"
                 transform="translate(4.183)">
                <g
                   id="g453">
                  <g
                     id="g455"
                     transform="translate(0,-3.118)">
                    <g
                       id="g457">
                      <g
                         id="g459">
                        <path
                           d="m 0,3.9851 v 5.82322 c 0,2.20094 1.78416,3.98511 3.9851,3.98511 h 135.49366 c 2.20093,0 3.98511,-1.78417 3.98511,-3.98511 V 3.9851 C 143.46387,1.78416 141.67969,0 139.47876,0 H 3.9851 C 1.78416,0 0,1.78416 0,3.9851 Z"
                           style="fill:#00b847;fill-opacity:1;fill-rule:nonzero;stroke:none"
                           id="path461" />
                      </g>
                      <g
                         id="g463">
                        <path
                           d="m 0.99628,3.9851 v 5.82322 c 0,1.65071 1.33812,2.98883 2.98882,2.98883 h 135.49366 c 1.6507,0 2.98883,-1.33812 2.98883,-2.98883 V 3.9851 c 0,-1.6507 -1.33813,-2.98882 -2.98883,-2.98882 H 3.9851 c -1.6507,0 -2.98882,1.33812 -2.98882,2.98882 z"
                           style="fill:#00b847;fill-opacity:1;fill-rule:nonzero;stroke:none"
                           id="path465" />
                      </g>
                      <g
                         id="g467">
                        <g
                           id="g469"
                           transform="translate(2.989,4.035)">
                          <g
                             id="g471">
                            <g
                               id="g473"
                               transform="translate(-305.158,-288.03)">
                              <text
                                 transform="matrix(1,0,0,-1,305.158,288.03)"
                                 style="font-variant:normal;font-weight:normal;font-size:9.9626px;font-family:'Source Code Pro';-inkscape-font-specification:SourceCodePro-Regular;writing-mode:lr-tb;fill:#e6f8ed;fill-opacity:1;fill-rule:nonzero;stroke:none"
                                 id="text477"><tspan
                                   x="0 5.97756 11.95512 17.93268 23.91024 29.8878 35.86536 41.842918 47.82048 53.798038 59.7756 65.753159 71.730721 77.708282 83.685837 89.663399 95.640961 101.61852 107.59608 113.57364 119.5512 125.52876 131.50632"
                                   y="0"
                                   sodipodi:role="line"
                                   id="tspan475">arara-rule-bib2gls.yaml</tspan></text>
                              <g
                                 id="g479"
                                 transform="translate(305.158,288.03)" />
                            </g>
                          </g>
                          <g
                             id="g481"
                             transform="translate(-2.989,-4.035)" />
                        </g>
                      </g>
                    </g>
                    <g
                       id="g483"
                       transform="translate(0,3.118)" />
                  </g>
                </g>
                <g
                   id="g485"
                   transform="translate(-4.183)" />
              </g>
            </g>
          </g>
          <g
             id="g487"
             transform="translate(-152.526,18.167)" />
        </g>
        <g
           id="g489"
           transform="translate(152.526,-33.881)">
          <g
             id="g491">
            <g
               id="g493">
              <g
                 id="g495"
                 transform="translate(4.183)">
                <g
                   id="g497">
                  <g
                     id="g499"
                     transform="translate(-302.169,-271.399)">
                    <text
                       transform="matrix(1,0,0,-1,302.169,271.399)"
                       style="font-variant:normal;font-size:11.9552px;font-family:'URW Bookman';-inkscape-font-specification:URWBookmanL-Ligh;writing-mode:lr-tb;fill:#00b847;fill-opacity:1;fill-rule:nonzero;stroke:none"
                       id="text503"><tspan
                         x="0 6.1210623 12.242125"
                         y="0"
                         sodipodi:role="line"
                         id="tspan501">...</tspan></text>
                    <g
                       id="g505"
                       transform="translate(302.169,271.399)" />
                  </g>
                </g>
                <g
                   id="g507"
                   transform="translate(-4.183)" />
              </g>
            </g>
          </g>
          <g
             id="g509"
             transform="translate(-152.526,33.881)" />
        </g>
        <g
           id="g511"
           transform="translate(152.526,-55.586)">
          <g
             id="g513">
            <g
               id="g515">
              <g
                 id="g517"
                 transform="translate(4.183)">
                <g
                   id="g519">
                  <g
                     id="g521"
                     transform="translate(0,-3.118)">
                    <g
                       id="g523">
                      <g
                         id="g525">
                        <path
                           d="M 0,3.9851 V 9.629 c 0,2.20094 1.78416,3.9851 3.9851,3.9851 h 123.53834 c 2.20093,0 3.9851,-1.78416 3.9851,-3.9851 V 3.9851 C 131.50854,1.78416 129.72437,0 127.52344,0 H 3.9851 C 1.78416,0 0,1.78416 0,3.9851 Z"
                           style="fill:#00b847;fill-opacity:1;fill-rule:nonzero;stroke:none"
                           id="path527" />
                      </g>
                      <g
                         id="g529">
                        <path
                           d="M 0.99628,3.9851 V 9.629 c 0,1.65071 1.33812,2.98883 2.98882,2.98883 h 123.53834 c 1.65069,0 2.98883,-1.33812 2.98883,-2.98883 V 3.9851 c 0,-1.6507 -1.33814,-2.98882 -2.98883,-2.98882 H 3.9851 c -1.6507,0 -2.98882,1.33812 -2.98882,2.98882 z"
                           style="fill:#00b847;fill-opacity:1;fill-rule:nonzero;stroke:none"
                           id="path531" />
                      </g>
                      <g
                         id="g533">
                        <g
                           id="g535"
                           transform="translate(2.989,3.855)">
                          <g
                             id="g537">
                            <g
                               id="g539"
                               transform="translate(-305.158,-250.431)">
                              <text
                                 transform="matrix(1,0,0,-1,305.158,250.431)"
                                 style="font-variant:normal;font-weight:normal;font-size:9.9626px;font-family:'Source Code Pro';-inkscape-font-specification:SourceCodePro-Regular;writing-mode:lr-tb;fill:#e6f8ed;fill-opacity:1;fill-rule:nonzero;stroke:none"
                                 id="text543"><tspan
                                   x="0 5.97756 11.95512 17.93268 23.91024 29.8878 35.86536 41.842918 47.82048 53.798038 59.7756 65.753159 71.730721 77.708282 83.685837 89.663399 95.640961 101.61852 107.59608 113.57364 119.5512"
                                   y="0"
                                   sodipodi:role="line"
                                   id="tspan541">arara-rule-xetex.yaml</tspan></text>
                              <g
                                 id="g545"
                                 transform="translate(305.158,250.431)" />
                            </g>
                          </g>
                          <g
                             id="g547"
                             transform="translate(-2.989,-3.855)" />
                        </g>
                      </g>
                    </g>
                    <g
                       id="g549"
                       transform="translate(0,3.118)" />
                  </g>
                </g>
                <g
                   id="g551"
                   transform="translate(-4.183)" />
              </g>
            </g>
          </g>
          <g
             id="g553"
             transform="translate(-152.526,55.586)" />
        </g>
        <g
           id="g555"
           transform="translate(152.526,-80.402)">
          <g
             id="g557">
            <g
               id="g559">
              <g
                 id="g561"
                 transform="translate(4.183)">
                <g
                   id="g563">
                  <g
                     id="g565"
                     transform="translate(0,-3.118)">
                    <g
                       id="g567">
                      <g
                         id="g569">
                        <path
                           d="M 0,3.9851 V 9.629 c 0,2.20094 1.78416,3.9851 3.9851,3.9851 h 123.53834 c 2.20093,0 3.9851,-1.78416 3.9851,-3.9851 V 3.9851 C 131.50854,1.78416 129.72437,0 127.52344,0 H 3.9851 C 1.78416,0 0,1.78416 0,3.9851 Z"
                           style="fill:#00b847;fill-opacity:1;fill-rule:nonzero;stroke:none"
                           id="path571" />
                      </g>
                      <g
                         id="g573">
                        <path
                           d="M 0.99628,3.9851 V 9.629 c 0,1.65071 1.33812,2.98883 2.98882,2.98883 h 123.53834 c 1.65069,0 2.98883,-1.33812 2.98883,-2.98883 V 3.9851 c 0,-1.6507 -1.33814,-2.98882 -2.98883,-2.98882 H 3.9851 c -1.6507,0 -2.98882,1.33812 -2.98882,2.98882 z"
                           style="fill:#00b847;fill-opacity:1;fill-rule:nonzero;stroke:none"
                           id="path575" />
                      </g>
                      <g
                         id="g577">
                        <g
                           id="g579"
                           transform="translate(2.989,3.855)">
                          <g
                             id="g581">
                            <g
                               id="g583"
                               transform="translate(-305.158,-225.615)">
                              <text
                                 transform="matrix(1,0,0,-1,305.158,225.615)"
                                 style="font-variant:normal;font-weight:normal;font-size:9.9626px;font-family:'Source Code Pro';-inkscape-font-specification:SourceCodePro-Regular;writing-mode:lr-tb;fill:#e6f8ed;fill-opacity:1;fill-rule:nonzero;stroke:none"
                                 id="text587"><tspan
                                   x="0 5.97756 11.95512 17.93268 23.91024 29.8878 35.86536 41.842918 47.82048 53.798038 59.7756 65.753159 71.730721 77.708282 83.685837 89.663399 95.640961 101.61852 107.59608 113.57364 119.5512"
                                   y="0"
                                   sodipodi:role="line"
                                   id="tspan585">arara-rule-xindy.yaml</tspan></text>
                              <g
                                 id="g589"
                                 transform="translate(305.158,225.615)" />
                            </g>
                          </g>
                          <g
                             id="g591"
                             transform="translate(-2.989,-3.855)" />
                        </g>
                      </g>
                    </g>
                    <g
                       id="g593"
                       transform="translate(0,3.118)" />
                  </g>
                </g>
                <g
                   id="g595"
                   transform="translate(-4.183)" />
              </g>
            </g>
          </g>
          <g
             id="g597"
             transform="translate(-152.526,80.402)" />
        </g>
        <g
           id="g599">
          <path
             d="m 74.12213,3.6889 h 5.97767 v 36.82773 h 8.11918"
             style="fill:none;stroke:#00b847;stroke-width:0.3985;stroke-linecap:butt;stroke-linejoin:miter;stroke-miterlimit:10;stroke-dasharray:none;stroke-opacity:1"
             id="path601" />
        </g>
        <g
           id="g603">
          <path
             d="m 74.12213,3.6889 h 5.97767 v -36.78787 h 8.11918"
             style="fill:none;stroke:#00b847;stroke-width:0.3985;stroke-linecap:butt;stroke-linejoin:miter;stroke-miterlimit:10;stroke-dasharray:none;stroke-opacity:1"
             id="path605" />
        </g>
        <g
           id="g607">
          <path
             d="m 138.43047,-33.09897 h 5.97766 v 43.61592 h 8.11918"
             style="fill:none;stroke:#00b847;stroke-width:0.3985;stroke-linecap:butt;stroke-linejoin:miter;stroke-miterlimit:10;stroke-dasharray:none;stroke-opacity:1"
             id="path609" />
        </g>
        <g
           id="g611">
          <path
             d="m 138.43047,-33.09897 h 5.97766 v 18.70964 h 8.11918"
             style="fill:none;stroke:#00b847;stroke-width:0.3985;stroke-linecap:butt;stroke-linejoin:miter;stroke-miterlimit:10;stroke-dasharray:none;stroke-opacity:1"
             id="path613" />
        </g>
        <g
           id="g615">
          <path
             d="m 138.43047,-33.09897 h 5.97766 v -18.7993 h 8.11918"
             style="fill:none;stroke:#00b847;stroke-width:0.3985;stroke-linecap:butt;stroke-linejoin:miter;stroke-miterlimit:10;stroke-dasharray:none;stroke-opacity:1"
             id="path617" />
        </g>
        <g
           id="g619">
          <path
             d="m 138.43047,-33.09897 h 5.97766 V -76.7149 h 8.11918"
             style="fill:none;stroke:#00b847;stroke-width:0.3985;stroke-linecap:butt;stroke-linejoin:miter;stroke-miterlimit:10;stroke-dasharray:none;stroke-opacity:1"
             id="path621" />
        </g>
      </g>
    </g>
  </g>
</svg>
